<?xml version="1.0" encoding="utf-8" standalone="no"?>
<!DOCTYPE svg PUBLIC "-//W3C//DTD SVG 1.1//EN"
  "http://www.w3.org/Graphics/SVG/1.1/DTD/svg11.dtd">
<svg xmlns:xlink="http://www.w3.org/1999/xlink" width="432pt" height="432pt" viewBox="0 0 432 432" xmlns="http://www.w3.org/2000/svg" version="1.1">
 <metadata>
  <rdf:RDF xmlns:dc="http://purl.org/dc/elements/1.1/" xmlns:cc="http://creativecommons.org/ns#" xmlns:rdf="http://www.w3.org/1999/02/22-rdf-syntax-ns#">
   <cc:Work>
    <dc:type rdf:resource="http://purl.org/dc/dcmitype/StillImage"/>
    <dc:date>2024-10-12T21:17:17.826675</dc:date>
    <dc:format>image/svg+xml</dc:format>
    <dc:creator>
     <cc:Agent>
      <dc:title>Matplotlib v3.8.4, https://matplotlib.org/</dc:title>
     </cc:Agent>
    </dc:creator>
   </cc:Work>
  </rdf:RDF>
 </metadata>
 <defs>
  <style type="text/css">*{stroke-linejoin: round; stroke-linecap: butt}</style>
 </defs>
 <g id="figure_1">
  <g id="patch_1">
   <path d="M 0 432 
L 432 432 
L 432 0 
L 0 0 
z
" style="fill: #ffffff"/>
  </g>
  <g id="axes_1">
   <g id="patch_2">
    <path d="M 54 384.48 
L 388.8 384.48 
L 388.8 51.84 
L 54 51.84 
z
" style="fill: #eaeaf2"/>
   </g>
   <g id="matplotlib.axis_1">
    <g id="xtick_1">
     <g id="line2d_1">
      <path d="M 69.218182 384.48 
L 69.218182 51.84 
" clip-path="url(#pbe0f3aa96d)" style="fill: none; stroke: #ffffff; stroke-linecap: round"/>
     </g>
     <g id="text_1">
      <!-- $\mathdefault{10^{0}}$ -->
      <g style="fill: #262626" transform="translate(59.538182 402.338281) scale(0.11 -0.11)">
       <defs>
        <path id="DejaVuSans-31" d="M 794 531 
L 1825 531 
L 1825 4091 
L 703 3866 
L 703 4441 
L 1819 4666 
L 2450 4666 
L 2450 531 
L 3481 531 
L 3481 0 
L 794 0 
L 794 531 
z
" transform="scale(0.015625)"/>
        <path id="DejaVuSans-30" d="M 2034 4250 
Q 1547 4250 1301 3770 
Q 1056 3291 1056 2328 
Q 1056 1369 1301 889 
Q 1547 409 2034 409 
Q 2525 409 2770 889 
Q 3016 1369 3016 2328 
Q 3016 3291 2770 3770 
Q 2525 4250 2034 4250 
z
M 2034 4750 
Q 2819 4750 3233 4129 
Q 3647 3509 3647 2328 
Q 3647 1150 3233 529 
Q 2819 -91 2034 -91 
Q 1250 -91 836 529 
Q 422 1150 422 2328 
Q 422 3509 836 4129 
Q 1250 4750 2034 4750 
z
" transform="scale(0.015625)"/>
       </defs>
       <use xlink:href="#DejaVuSans-31" transform="translate(0 0.765625)"/>
       <use xlink:href="#DejaVuSans-30" transform="translate(63.623047 0.765625)"/>
       <use xlink:href="#DejaVuSans-30" transform="translate(128.203125 39.046875) scale(0.7)"/>
      </g>
     </g>
    </g>
    <g id="xtick_2">
     <g id="line2d_2">
      <path d="M 145.309091 384.48 
L 145.309091 51.84 
" clip-path="url(#pbe0f3aa96d)" style="fill: none; stroke: #ffffff; stroke-linecap: round"/>
     </g>
     <g id="text_2">
      <!-- $\mathdefault{10^{1}}$ -->
      <g style="fill: #262626" transform="translate(135.629091 402.338281) scale(0.11 -0.11)">
       <use xlink:href="#DejaVuSans-31" transform="translate(0 0.684375)"/>
       <use xlink:href="#DejaVuSans-30" transform="translate(63.623047 0.684375)"/>
       <use xlink:href="#DejaVuSans-31" transform="translate(128.203125 38.965625) scale(0.7)"/>
      </g>
     </g>
    </g>
    <g id="xtick_3">
     <g id="line2d_3">
      <path d="M 221.4 384.48 
L 221.4 51.84 
" clip-path="url(#pbe0f3aa96d)" style="fill: none; stroke: #ffffff; stroke-linecap: round"/>
     </g>
     <g id="text_3">
      <!-- $\mathdefault{10^{2}}$ -->
      <g style="fill: #262626" transform="translate(211.72 402.338281) scale(0.11 -0.11)">
       <defs>
        <path id="DejaVuSans-32" d="M 1228 531 
L 3431 531 
L 3431 0 
L 469 0 
L 469 531 
Q 828 903 1448 1529 
Q 2069 2156 2228 2338 
Q 2531 2678 2651 2914 
Q 2772 3150 2772 3378 
Q 2772 3750 2511 3984 
Q 2250 4219 1831 4219 
Q 1534 4219 1204 4116 
Q 875 4013 500 3803 
L 500 4441 
Q 881 4594 1212 4672 
Q 1544 4750 1819 4750 
Q 2544 4750 2975 4387 
Q 3406 4025 3406 3419 
Q 3406 3131 3298 2873 
Q 3191 2616 2906 2266 
Q 2828 2175 2409 1742 
Q 1991 1309 1228 531 
z
" transform="scale(0.015625)"/>
       </defs>
       <use xlink:href="#DejaVuSans-31" transform="translate(0 0.765625)"/>
       <use xlink:href="#DejaVuSans-30" transform="translate(63.623047 0.765625)"/>
       <use xlink:href="#DejaVuSans-32" transform="translate(128.203125 39.046875) scale(0.7)"/>
      </g>
     </g>
    </g>
    <g id="xtick_4">
     <g id="line2d_4">
      <path d="M 297.490909 384.48 
L 297.490909 51.84 
" clip-path="url(#pbe0f3aa96d)" style="fill: none; stroke: #ffffff; stroke-linecap: round"/>
     </g>
     <g id="text_4">
      <!-- $\mathdefault{10^{3}}$ -->
      <g style="fill: #262626" transform="translate(287.810909 402.338281) scale(0.11 -0.11)">
       <defs>
        <path id="DejaVuSans-33" d="M 2597 2516 
Q 3050 2419 3304 2112 
Q 3559 1806 3559 1356 
Q 3559 666 3084 287 
Q 2609 -91 1734 -91 
Q 1441 -91 1130 -33 
Q 819 25 488 141 
L 488 750 
Q 750 597 1062 519 
Q 1375 441 1716 441 
Q 2309 441 2620 675 
Q 2931 909 2931 1356 
Q 2931 1769 2642 2001 
Q 2353 2234 1838 2234 
L 1294 2234 
L 1294 2753 
L 1863 2753 
Q 2328 2753 2575 2939 
Q 2822 3125 2822 3475 
Q 2822 3834 2567 4026 
Q 2313 4219 1838 4219 
Q 1578 4219 1281 4162 
Q 984 4106 628 3988 
L 628 4550 
Q 988 4650 1302 4700 
Q 1616 4750 1894 4750 
Q 2613 4750 3031 4423 
Q 3450 4097 3450 3541 
Q 3450 3153 3228 2886 
Q 3006 2619 2597 2516 
z
" transform="scale(0.015625)"/>
       </defs>
       <use xlink:href="#DejaVuSans-31" transform="translate(0 0.765625)"/>
       <use xlink:href="#DejaVuSans-30" transform="translate(63.623047 0.765625)"/>
       <use xlink:href="#DejaVuSans-33" transform="translate(128.203125 39.046875) scale(0.7)"/>
      </g>
     </g>
    </g>
    <g id="xtick_5">
     <g id="line2d_5">
      <path d="M 373.581818 384.48 
L 373.581818 51.84 
" clip-path="url(#pbe0f3aa96d)" style="fill: none; stroke: #ffffff; stroke-linecap: round"/>
     </g>
     <g id="text_5">
      <!-- $\mathdefault{10^{4}}$ -->
      <g style="fill: #262626" transform="translate(363.901818 402.338281) scale(0.11 -0.11)">
       <defs>
        <path id="DejaVuSans-34" d="M 2419 4116 
L 825 1625 
L 2419 1625 
L 2419 4116 
z
M 2253 4666 
L 3047 4666 
L 3047 1625 
L 3713 1625 
L 3713 1100 
L 3047 1100 
L 3047 0 
L 2419 0 
L 2419 1100 
L 313 1100 
L 313 1709 
L 2253 4666 
z
" transform="scale(0.015625)"/>
       </defs>
       <use xlink:href="#DejaVuSans-31" transform="translate(0 0.684375)"/>
       <use xlink:href="#DejaVuSans-30" transform="translate(63.623047 0.684375)"/>
       <use xlink:href="#DejaVuSans-34" transform="translate(128.203125 38.965625) scale(0.7)"/>
      </g>
     </g>
    </g>
    <g id="xtick_6"/>
    <g id="xtick_7"/>
    <g id="xtick_8"/>
    <g id="xtick_9"/>
    <g id="xtick_10"/>
    <g id="xtick_11"/>
    <g id="xtick_12"/>
    <g id="xtick_13"/>
    <g id="xtick_14"/>
    <g id="xtick_15"/>
    <g id="xtick_16"/>
    <g id="xtick_17"/>
    <g id="xtick_18"/>
    <g id="xtick_19"/>
    <g id="xtick_20"/>
    <g id="xtick_21"/>
    <g id="xtick_22"/>
    <g id="xtick_23"/>
    <g id="xtick_24"/>
    <g id="xtick_25"/>
    <g id="xtick_26"/>
    <g id="xtick_27"/>
    <g id="xtick_28"/>
    <g id="xtick_29"/>
    <g id="xtick_30"/>
    <g id="xtick_31"/>
    <g id="xtick_32"/>
    <g id="xtick_33"/>
    <g id="xtick_34"/>
    <g id="xtick_35"/>
    <g id="xtick_36"/>
    <g id="xtick_37"/>
    <g id="xtick_38"/>
    <g id="xtick_39"/>
    <g id="xtick_40"/>
    <g id="text_6">
     <!-- $N$ -->
     <g style="fill: #262626" transform="translate(216.9 417.744062) scale(0.12 -0.12)">
      <defs>
       <path id="DejaVuSans-Oblique-4e" d="M 1081 4666 
L 1931 4666 
L 3219 666 
L 4000 4666 
L 4616 4666 
L 3706 0 
L 2853 0 
L 1569 4025 
L 788 0 
L 172 0 
L 1081 4666 
z
" transform="scale(0.015625)"/>
      </defs>
      <use xlink:href="#DejaVuSans-Oblique-4e" transform="translate(0 0.09375)"/>
     </g>
    </g>
   </g>
   <g id="matplotlib.axis_2">
    <g id="ytick_1">
     <g id="line2d_6">
      <path d="M 54 296.685167 
L 388.8 296.685167 
" clip-path="url(#pbe0f3aa96d)" style="fill: none; stroke: #ffffff; stroke-linecap: round"/>
     </g>
     <g id="text_7">
      <!-- $\mathdefault{10^{-3}}$ -->
      <g style="fill: #262626" transform="translate(18.65 300.864308) scale(0.11 -0.11)">
       <defs>
        <path id="DejaVuSans-2212" d="M 678 2272 
L 4684 2272 
L 4684 1741 
L 678 1741 
L 678 2272 
z
" transform="scale(0.015625)"/>
       </defs>
       <use xlink:href="#DejaVuSans-31" transform="translate(0 0.765625)"/>
       <use xlink:href="#DejaVuSans-30" transform="translate(63.623047 0.765625)"/>
       <use xlink:href="#DejaVuSans-2212" transform="translate(128.203125 39.046875) scale(0.7)"/>
       <use xlink:href="#DejaVuSans-33" transform="translate(186.855469 39.046875) scale(0.7)"/>
      </g>
     </g>
    </g>
    <g id="ytick_2">
     <g id="line2d_7">
      <path d="M 54 184.118233 
L 388.8 184.118233 
" clip-path="url(#pbe0f3aa96d)" style="fill: none; stroke: #ffffff; stroke-linecap: round"/>
     </g>
     <g id="text_8">
      <!-- $\mathdefault{10^{-2}}$ -->
      <g style="fill: #262626" transform="translate(18.65 188.297374) scale(0.11 -0.11)">
       <use xlink:href="#DejaVuSans-31" transform="translate(0 0.765625)"/>
       <use xlink:href="#DejaVuSans-30" transform="translate(63.623047 0.765625)"/>
       <use xlink:href="#DejaVuSans-2212" transform="translate(128.203125 39.046875) scale(0.7)"/>
       <use xlink:href="#DejaVuSans-32" transform="translate(186.855469 39.046875) scale(0.7)"/>
      </g>
     </g>
    </g>
    <g id="ytick_3">
     <g id="line2d_8">
      <path d="M 54 71.551299 
L 388.8 71.551299 
" clip-path="url(#pbe0f3aa96d)" style="fill: none; stroke: #ffffff; stroke-linecap: round"/>
     </g>
     <g id="text_9">
      <!-- $\mathdefault{10^{-1}}$ -->
      <g style="fill: #262626" transform="translate(18.65 75.730439) scale(0.11 -0.11)">
       <use xlink:href="#DejaVuSans-31" transform="translate(0 0.684375)"/>
       <use xlink:href="#DejaVuSans-30" transform="translate(63.623047 0.684375)"/>
       <use xlink:href="#DejaVuSans-2212" transform="translate(128.203125 38.965625) scale(0.7)"/>
       <use xlink:href="#DejaVuSans-31" transform="translate(186.855469 38.965625) scale(0.7)"/>
      </g>
     </g>
    </g>
    <g id="ytick_4"/>
    <g id="ytick_5"/>
    <g id="ytick_6"/>
    <g id="ytick_7"/>
    <g id="ytick_8"/>
    <g id="ytick_9"/>
    <g id="ytick_10"/>
    <g id="ytick_11"/>
    <g id="ytick_12"/>
    <g id="ytick_13"/>
    <g id="ytick_14"/>
    <g id="ytick_15"/>
    <g id="ytick_16"/>
    <g id="ytick_17"/>
    <g id="ytick_18"/>
    <g id="ytick_19"/>
    <g id="ytick_20"/>
    <g id="ytick_21"/>
    <g id="ytick_22"/>
    <g id="ytick_23"/>
    <g id="ytick_24"/>
    <g id="ytick_25"/>
    <g id="ytick_26"/>
    <g id="ytick_27"/>
    <g id="text_10">
     <!-- experiment MSE -->
     <g style="fill: #262626" transform="translate(12.154375 267.3075) rotate(-90) scale(0.12 -0.12)">
      <defs>
       <path id="DejaVuSans-65" d="M 3597 1894 
L 3597 1613 
L 953 1613 
Q 991 1019 1311 708 
Q 1631 397 2203 397 
Q 2534 397 2845 478 
Q 3156 559 3463 722 
L 3463 178 
Q 3153 47 2828 -22 
Q 2503 -91 2169 -91 
Q 1331 -91 842 396 
Q 353 884 353 1716 
Q 353 2575 817 3079 
Q 1281 3584 2069 3584 
Q 2775 3584 3186 3129 
Q 3597 2675 3597 1894 
z
M 3022 2063 
Q 3016 2534 2758 2815 
Q 2500 3097 2075 3097 
Q 1594 3097 1305 2825 
Q 1016 2553 972 2059 
L 3022 2063 
z
" transform="scale(0.015625)"/>
       <path id="DejaVuSans-78" d="M 3513 3500 
L 2247 1797 
L 3578 0 
L 2900 0 
L 1881 1375 
L 863 0 
L 184 0 
L 1544 1831 
L 300 3500 
L 978 3500 
L 1906 2253 
L 2834 3500 
L 3513 3500 
z
" transform="scale(0.015625)"/>
       <path id="DejaVuSans-70" d="M 1159 525 
L 1159 -1331 
L 581 -1331 
L 581 3500 
L 1159 3500 
L 1159 2969 
Q 1341 3281 1617 3432 
Q 1894 3584 2278 3584 
Q 2916 3584 3314 3078 
Q 3713 2572 3713 1747 
Q 3713 922 3314 415 
Q 2916 -91 2278 -91 
Q 1894 -91 1617 61 
Q 1341 213 1159 525 
z
M 3116 1747 
Q 3116 2381 2855 2742 
Q 2594 3103 2138 3103 
Q 1681 3103 1420 2742 
Q 1159 2381 1159 1747 
Q 1159 1113 1420 752 
Q 1681 391 2138 391 
Q 2594 391 2855 752 
Q 3116 1113 3116 1747 
z
" transform="scale(0.015625)"/>
       <path id="DejaVuSans-72" d="M 2631 2963 
Q 2534 3019 2420 3045 
Q 2306 3072 2169 3072 
Q 1681 3072 1420 2755 
Q 1159 2438 1159 1844 
L 1159 0 
L 581 0 
L 581 3500 
L 1159 3500 
L 1159 2956 
Q 1341 3275 1631 3429 
Q 1922 3584 2338 3584 
Q 2397 3584 2469 3576 
Q 2541 3569 2628 3553 
L 2631 2963 
z
" transform="scale(0.015625)"/>
       <path id="DejaVuSans-69" d="M 603 3500 
L 1178 3500 
L 1178 0 
L 603 0 
L 603 3500 
z
M 603 4863 
L 1178 4863 
L 1178 4134 
L 603 4134 
L 603 4863 
z
" transform="scale(0.015625)"/>
       <path id="DejaVuSans-6d" d="M 3328 2828 
Q 3544 3216 3844 3400 
Q 4144 3584 4550 3584 
Q 5097 3584 5394 3201 
Q 5691 2819 5691 2113 
L 5691 0 
L 5113 0 
L 5113 2094 
Q 5113 2597 4934 2840 
Q 4756 3084 4391 3084 
Q 3944 3084 3684 2787 
Q 3425 2491 3425 1978 
L 3425 0 
L 2847 0 
L 2847 2094 
Q 2847 2600 2669 2842 
Q 2491 3084 2119 3084 
Q 1678 3084 1418 2786 
Q 1159 2488 1159 1978 
L 1159 0 
L 581 0 
L 581 3500 
L 1159 3500 
L 1159 2956 
Q 1356 3278 1631 3431 
Q 1906 3584 2284 3584 
Q 2666 3584 2933 3390 
Q 3200 3197 3328 2828 
z
" transform="scale(0.015625)"/>
       <path id="DejaVuSans-6e" d="M 3513 2113 
L 3513 0 
L 2938 0 
L 2938 2094 
Q 2938 2591 2744 2837 
Q 2550 3084 2163 3084 
Q 1697 3084 1428 2787 
Q 1159 2491 1159 1978 
L 1159 0 
L 581 0 
L 581 3500 
L 1159 3500 
L 1159 2956 
Q 1366 3272 1645 3428 
Q 1925 3584 2291 3584 
Q 2894 3584 3203 3211 
Q 3513 2838 3513 2113 
z
" transform="scale(0.015625)"/>
       <path id="DejaVuSans-74" d="M 1172 4494 
L 1172 3500 
L 2356 3500 
L 2356 3053 
L 1172 3053 
L 1172 1153 
Q 1172 725 1289 603 
Q 1406 481 1766 481 
L 2356 481 
L 2356 0 
L 1766 0 
Q 1100 0 847 248 
Q 594 497 594 1153 
L 594 3053 
L 172 3053 
L 172 3500 
L 594 3500 
L 594 4494 
L 1172 4494 
z
" transform="scale(0.015625)"/>
       <path id="DejaVuSans-20" transform="scale(0.015625)"/>
       <path id="DejaVuSans-4d" d="M 628 4666 
L 1569 4666 
L 2759 1491 
L 3956 4666 
L 4897 4666 
L 4897 0 
L 4281 0 
L 4281 4097 
L 3078 897 
L 2444 897 
L 1241 4097 
L 1241 0 
L 628 0 
L 628 4666 
z
" transform="scale(0.015625)"/>
       <path id="DejaVuSans-53" d="M 3425 4513 
L 3425 3897 
Q 3066 4069 2747 4153 
Q 2428 4238 2131 4238 
Q 1616 4238 1336 4038 
Q 1056 3838 1056 3469 
Q 1056 3159 1242 3001 
Q 1428 2844 1947 2747 
L 2328 2669 
Q 3034 2534 3370 2195 
Q 3706 1856 3706 1288 
Q 3706 609 3251 259 
Q 2797 -91 1919 -91 
Q 1588 -91 1214 -16 
Q 841 59 441 206 
L 441 856 
Q 825 641 1194 531 
Q 1563 422 1919 422 
Q 2459 422 2753 634 
Q 3047 847 3047 1241 
Q 3047 1584 2836 1778 
Q 2625 1972 2144 2069 
L 1759 2144 
Q 1053 2284 737 2584 
Q 422 2884 422 3419 
Q 422 4038 858 4394 
Q 1294 4750 2059 4750 
Q 2388 4750 2728 4690 
Q 3069 4631 3425 4513 
z
" transform="scale(0.015625)"/>
       <path id="DejaVuSans-45" d="M 628 4666 
L 3578 4666 
L 3578 4134 
L 1259 4134 
L 1259 2753 
L 3481 2753 
L 3481 2222 
L 1259 2222 
L 1259 531 
L 3634 531 
L 3634 0 
L 628 0 
L 628 4666 
z
" transform="scale(0.015625)"/>
      </defs>
      <use xlink:href="#DejaVuSans-65"/>
      <use xlink:href="#DejaVuSans-78" x="59.773438"/>
      <use xlink:href="#DejaVuSans-70" x="118.953125"/>
      <use xlink:href="#DejaVuSans-65" x="182.429688"/>
      <use xlink:href="#DejaVuSans-72" x="243.953125"/>
      <use xlink:href="#DejaVuSans-69" x="285.066406"/>
      <use xlink:href="#DejaVuSans-6d" x="312.849609"/>
      <use xlink:href="#DejaVuSans-65" x="410.261719"/>
      <use xlink:href="#DejaVuSans-6e" x="471.785156"/>
      <use xlink:href="#DejaVuSans-74" x="535.164062"/>
      <use xlink:href="#DejaVuSans-20" x="574.373047"/>
      <use xlink:href="#DejaVuSans-4d" x="606.160156"/>
      <use xlink:href="#DejaVuSans-53" x="692.439453"/>
      <use xlink:href="#DejaVuSans-45" x="755.916016"/>
     </g>
    </g>
   </g>
   <g id="PolyCollection_1">
    <path d="M 92.123828 88.93286 
L 92.123828 94.242117 
L 105.522772 102.873644 
L 115.029474 104.469348 
L 122.403445 112.429303 
L 128.428418 111.662863 
L 133.52246 117.809119 
L 137.93512 122.633267 
L 141.827362 122.142048 
L 145.309091 119.774164 
L 148.458698 123.250661 
L 151.334064 129.879282 
L 153.979144 122.590334 
L 156.428106 117.983602 
L 158.708035 122.843015 
L 160.840766 125.755998 
L 162.844159 113.526627 
L 164.733008 130.677597 
L 166.519706 121.997739 
L 168.214737 127.274503 
L 169.82705 126.159648 
L 171.364344 120.349506 
L 172.833291 126.398786 
L 174.23971 122.661766 
L 175.588708 119.71141 
L 176.88479 126.990742 
L 178.131952 133.045374 
L 179.333752 124.762616 
L 180.493375 125.577225 
L 181.613681 118.610192 
L 182.697249 120.711714 
L 183.746412 126.752068 
L 183.746412 118.342582 
L 183.746412 118.342582 
L 182.697249 119.889897 
L 181.613681 116.46426 
L 180.493375 117.986488 
L 179.333752 121.89825 
L 178.131952 124.061557 
L 176.88479 117.222227 
L 175.588708 115.150665 
L 174.23971 117.151522 
L 172.833291 113.629664 
L 171.364344 117.445002 
L 169.82705 120.778983 
L 168.214737 115.722884 
L 166.519706 113.704621 
L 164.733008 121.145926 
L 162.844159 108.527933 
L 160.840766 112.788374 
L 158.708035 115.478276 
L 156.428106 106.028581 
L 153.979144 115.982887 
L 151.334064 113.881639 
L 148.458698 117.25873 
L 145.309091 109.345839 
L 141.827362 106.18199 
L 137.93512 108.944825 
L 133.52246 104.440147 
L 128.428418 98.407817 
L 122.403445 105.3434 
L 115.029474 95.910251 
L 105.522772 93.888048 
L 92.123828 88.93286 
z
" clip-path="url(#pbe0f3aa96d)" style="fill: #4c72b0; fill-opacity: 0.2; stroke: #4c72b0; stroke-opacity: 0.2"/>
    <path d="M 185.749805 117.193008 
L 185.749805 123.819747 
L 186.707723 125.717319 
L 186.707723 121.753977 
L 186.707723 121.753977 
L 185.749805 117.193008 
z
" clip-path="url(#pbe0f3aa96d)" style="fill: #4c72b0; fill-opacity: 0.2; stroke: #4c72b0; stroke-opacity: 0.2"/>
    <path d="M 188.544077 120.122992 
L 188.544077 123.667285 
L 188.544077 120.122992 
L 188.544077 120.122992 
z
" clip-path="url(#pbe0f3aa96d)" style="fill: #4c72b0; fill-opacity: 0.2; stroke: #4c72b0; stroke-opacity: 0.2"/>
    <path d="M 191.120383 126.435716 
L 191.120383 127.918539 
L 191.120383 126.435716 
L 191.120383 126.435716 
z
" clip-path="url(#pbe0f3aa96d)" style="fill: #4c72b0; fill-opacity: 0.2; stroke: #4c72b0; stroke-opacity: 0.2"/>
    <path d="M 193.510282 119.483821 
L 193.510282 124.176737 
L 193.510282 119.483821 
L 193.510282 119.483821 
z
" clip-path="url(#pbe0f3aa96d)" style="fill: #4c72b0; fill-opacity: 0.2; stroke: #4c72b0; stroke-opacity: 0.2"/>
    <path d="M 196.449628 120.057572 
L 196.449628 121.779949 
L 196.449628 120.057572 
L 196.449628 120.057572 
z
" clip-path="url(#pbe0f3aa96d)" style="fill: #4c72b0; fill-opacity: 0.2; stroke: #4c72b0; stroke-opacity: 0.2"/>
   </g>
   <g id="PolyCollection_2">
    <path d="M 92.123828 195.789986 
L 92.123828 200.727303 
L 105.522772 213.774595 
L 115.029474 222.697581 
L 122.403445 226.882612 
L 128.428418 231.822762 
L 133.52246 231.135607 
L 137.93512 234.644332 
L 141.827362 236.207844 
L 145.309091 238.023889 
L 148.458698 240.392575 
L 151.334064 240.372275 
L 153.979144 242.356519 
L 156.428106 242.548335 
L 158.708035 243.517667 
L 160.840766 243.05413 
L 162.844159 239.858338 
L 164.733008 245.286404 
L 166.519706 244.343975 
L 168.214737 242.852548 
L 169.82705 243.920598 
L 171.364344 242.185456 
L 172.833291 247.728751 
L 174.23971 244.767109 
L 175.588708 243.467952 
L 176.88479 245.851883 
L 178.131952 246.579509 
L 179.333752 244.201143 
L 180.493375 244.190104 
L 181.613681 246.08645 
L 182.697249 245.307052 
L 183.746412 247.339682 
L 183.746412 243.05413 
L 183.746412 243.05413 
L 182.697249 242.567852 
L 181.613681 244.95342 
L 180.493375 243.409697 
L 179.333752 244.201143 
L 178.131952 241.171988 
L 176.88479 241.960836 
L 175.588708 242.949203 
L 174.23971 242.49622 
L 172.833291 240.842467 
L 171.364344 240.256033 
L 169.82705 243.180255 
L 168.214737 234.04066 
L 166.519706 239.118199 
L 164.733008 242.250289 
L 162.844159 234.88257 
L 160.840766 239.406219 
L 158.708035 236.806162 
L 156.428106 235.001148 
L 153.979144 235.115908 
L 151.334064 230.721533 
L 148.458698 236.503802 
L 145.309091 234.28194 
L 141.827362 229.99212 
L 137.93512 227.875289 
L 133.52246 225.656537 
L 128.428418 226.076598 
L 122.403445 222.513607 
L 115.029474 218.280194 
L 105.522772 208.430892 
L 92.123828 195.789986 
z
" clip-path="url(#pbe0f3aa96d)" style="fill: #dd8452; fill-opacity: 0.2; stroke: #dd8452; stroke-opacity: 0.2"/>
    <path d="M 185.749805 242.549996 
L 185.749805 244.239125 
L 186.707723 245.190183 
L 186.707723 240.967995 
L 186.707723 240.967995 
L 185.749805 242.549996 
z
" clip-path="url(#pbe0f3aa96d)" style="fill: #dd8452; fill-opacity: 0.2; stroke: #dd8452; stroke-opacity: 0.2"/>
    <path d="M 188.544077 244.899727 
L 188.544077 246.141184 
L 188.544077 244.899727 
L 188.544077 244.899727 
z
" clip-path="url(#pbe0f3aa96d)" style="fill: #dd8452; fill-opacity: 0.2; stroke: #dd8452; stroke-opacity: 0.2"/>
    <path d="M 191.120383 244.281394 
L 191.120383 245.753262 
L 191.120383 244.281394 
L 191.120383 244.281394 
z
" clip-path="url(#pbe0f3aa96d)" style="fill: #dd8452; fill-opacity: 0.2; stroke: #dd8452; stroke-opacity: 0.2"/>
    <path d="M 193.510282 245.412494 
L 193.510282 247.473096 
L 193.510282 245.412494 
L 193.510282 245.412494 
z
" clip-path="url(#pbe0f3aa96d)" style="fill: #dd8452; fill-opacity: 0.2; stroke: #dd8452; stroke-opacity: 0.2"/>
    <path d="M 196.449628 247.021759 
L 196.449628 247.983222 
L 196.449628 247.021759 
L 196.449628 247.021759 
z
" clip-path="url(#pbe0f3aa96d)" style="fill: #dd8452; fill-opacity: 0.2; stroke: #dd8452; stroke-opacity: 0.2"/>
   </g>
   <g id="PolyCollection_3">
    <path d="M 92.123828 313.561988 
L 92.123828 313.561988 
L 105.522772 326.667335 
L 115.029474 334.826934 
L 122.403445 340.468301 
L 128.428418 344.626755 
L 133.52246 347.829742 
L 137.93512 346.835744 
L 141.827362 351.452893 
L 145.309091 353.672415 
L 148.458698 354.069957 
L 151.334064 356.32874 
L 153.979144 357.981236 
L 156.428106 358.493426 
L 158.708035 359.380364 
L 160.840766 359.125705 
L 162.844159 359.932598 
L 164.733008 361.781519 
L 166.519706 361.300037 
L 168.214737 360.966359 
L 169.82705 361.572275 
L 171.364344 359.866439 
L 172.833291 362.623938 
L 174.23971 361.781519 
L 175.588708 362.89559 
L 176.88479 364.468349 
L 178.131952 363.197181 
L 179.333752 362.627568 
L 180.493375 363.509951 
L 181.613681 363.030326 
L 182.697249 363.423259 
L 183.746412 364.166683 
L 183.746412 363.41393 
L 183.746412 363.41393 
L 182.697249 362.633562 
L 181.613681 362.610503 
L 180.493375 360.849708 
L 179.333752 362.627568 
L 178.131952 362.677639 
L 176.88479 361.660074 
L 175.588708 359.391369 
L 174.23971 360.513735 
L 172.833291 360.535032 
L 171.364344 359.137016 
L 169.82705 359.929804 
L 168.214737 358.311418 
L 166.519706 360.295818 
L 164.733008 359.54992 
L 162.844159 356.368479 
L 160.840766 355.183483 
L 158.708035 355.992097 
L 156.428106 354.691779 
L 153.979144 356.393856 
L 151.334064 352.998022 
L 148.458698 348.225439 
L 145.309091 349.67208 
L 141.827362 347.359354 
L 137.93512 341.586075 
L 133.52246 344.474238 
L 128.428418 342.602836 
L 122.403445 336.827463 
L 115.029474 332.618241 
L 105.522772 322.850404 
L 92.123828 313.561988 
z
" clip-path="url(#pbe0f3aa96d)" style="fill: #55a868; fill-opacity: 0.2; stroke: #55a868; stroke-opacity: 0.2"/>
    <path d="M 185.749805 363.444957 
L 185.749805 363.777138 
L 186.707723 363.793466 
L 186.707723 362.550821 
L 186.707723 362.550821 
L 185.749805 363.444957 
z
" clip-path="url(#pbe0f3aa96d)" style="fill: #55a868; fill-opacity: 0.2; stroke: #55a868; stroke-opacity: 0.2"/>
    <path d="M 188.544077 363.859013 
L 188.544077 364.712189 
L 188.544077 363.859013 
L 188.544077 363.859013 
z
" clip-path="url(#pbe0f3aa96d)" style="fill: #55a868; fill-opacity: 0.2; stroke: #55a868; stroke-opacity: 0.2"/>
    <path d="M 191.120383 363.533594 
L 191.120383 365.240397 
L 191.120383 363.533594 
L 191.120383 363.533594 
z
" clip-path="url(#pbe0f3aa96d)" style="fill: #55a868; fill-opacity: 0.2; stroke: #55a868; stroke-opacity: 0.2"/>
    <path d="M 193.510282 364.004079 
L 193.510282 364.636221 
L 193.510282 364.004079 
L 193.510282 364.004079 
z
" clip-path="url(#pbe0f3aa96d)" style="fill: #55a868; fill-opacity: 0.2; stroke: #55a868; stroke-opacity: 0.2"/>
    <path d="M 196.449628 363.809137 
L 196.449628 365.58647 
L 196.449628 363.809137 
L 196.449628 363.809137 
z
" clip-path="url(#pbe0f3aa96d)" style="fill: #55a868; fill-opacity: 0.2; stroke: #55a868; stroke-opacity: 0.2"/>
   </g>
   <g id="line2d_9">
    <path d="M 69.218182 66.96 
L 92.123828 91.850064 
L 105.522772 98.678571 
L 115.029474 100.158251 
L 122.403445 108.80758 
L 128.428418 105.779616 
L 133.52246 111.816838 
L 137.93512 116.355853 
L 141.827362 114.614153 
L 145.309091 115.054169 
L 148.458698 120.703615 
L 151.334064 120.101435 
L 153.979144 119.367542 
L 156.428106 112.782229 
L 158.708035 119.012436 
L 160.840766 117.362314 
L 162.844159 111.360647 
L 164.733008 124.610268 
L 166.519706 117.607997 
L 168.214737 121.278278 
L 169.82705 123.038517 
L 171.364344 118.897254 
L 172.833291 118.863615 
L 174.23971 119.906644 
L 175.588708 117.431038 
L 176.88479 122.106484 
L 178.131952 128.553465 
L 179.333752 123.330433 
L 180.493375 121.781856 
L 181.613681 117.537226 
L 182.697249 120.300805 
L 183.746412 122.547325 
L 184.763288 123.032345 
L 185.749805 120.506378 
L 186.707723 123.735648 
L 187.638654 120.240359 
L 188.544077 121.895138 
L 189.425352 122.051655 
L 190.283734 124.4697 
L 191.120383 127.177127 
L 191.936372 114.134648 
L 192.732696 117.048208 
L 193.510282 121.830279 
L 194.26999 116.066502 
L 195.738937 128.711823 
L 196.449628 120.91876 
L 197.145356 125.6851 
L 197.826738 118.129447 
L 198.494354 118.909233 
L 199.148749 124.447978 
L 199.790436 121.303434 
L 200.4199 122.123338 
L 201.037598 124.042843 
L 201.643961 126.939611 
L 202.239398 128.002983 
L 202.824296 120.561399 
L 203.399021 123.08487 
L 203.963921 117.420062 
L 204.519327 118.566653 
L 205.065552 123.783182 
L 205.602895 122.926634 
L 206.652058 125.297511 
L 207.164407 125.91848 
L 207.668934 127.569932 
L 208.165874 121.72487 
L 208.655451 123.376228 
L 209.613369 121.878466 
L 210.082113 121.526673 
L 210.5443 121.912182 
L 211.449723 121.844171 
L 211.893298 126.822688 
L 212.330998 120.807703 
L 213.18938 129.495671 
L 213.610352 127.147478 
L 214.436542 121.754483 
L 214.842018 122.664782 
L 215.638342 122.309831 
L 216.029422 124.426659 
L 216.797965 123.265162 
L 217.175636 121.53706 
L 217.918271 121.107334 
L 218.644583 121.959078 
L 219.001839 127.442242 
L 219.704969 122.356705 
L 220.393449 123.841455 
L 221.067878 122.458336 
L 221.4 124.95579 
L 222.054395 122.005951 
L 222.696082 121.411744 
L 223.325546 126.953996 
L 223.943244 124.720844 
L 224.549607 121.133812 
L 225.145044 123.918409 
L 225.729942 123.720889 
L 226.304667 123.711503 
L 227.148437 121.948723 
L 227.699214 126.237901 
L 228.240962 118.84765 
L 228.773971 127.304164 
L 229.557704 125.469033 
L 230.070053 123.504526 
L 230.57458 123.03544 
L 231.317215 122.104107 
L 231.803192 126.632283 
L 232.519015 125.76481 
L 232.987759 123.870277 
L 233.678638 123.05523 
L 234.355369 122.86234 
L 234.798944 123.336082 
L 235.453339 128.160817 
L 236.095026 122.570204 
L 236.72449 124.566179 
L 237.342188 128.167931 
L 237.948551 122.267104 
L 238.543988 119.87828 
L 239.128886 125.180699 
L 239.703611 122.243779 
L 240.454686 125.513886 
L 241.006997 125.952028 
L 241.550229 126.169166 
L 242.26092 121.847129 
L 242.784084 121.609599 
L 243.468997 122.28209 
L 243.973524 125.108054 
L 244.634463 122.495271 
L 245.282442 122.988499 
L 245.760222 121.199871 
L 246.386703 124.523276 
L 247.001527 124.557873 
L 247.605121 122.016918 
L 248.197888 125.857995 
L 248.9242 125.283286 
L 249.49397 126.344093 
L 250.054083 123.251665 
L 251.280668 124.505887 
L 251.942932 124.990964 
L 252.46335 124.112633 
L 253.72963 123.767317 
L 254.345027 122.191661 
L 254.949173 122.70173 
L 255.542472 124.135102 
L 256.125306 122.659937 
L 256.811404 125.05893 
L 257.372468 122.932043 
L 257.924165 126.495615 
L 258.574268 123.72195 
L 259.211829 125.151626 
L 259.837321 125.200422 
L 260.451194 125.456844 
L 261.053871 123.71557 
L 261.645753 125.375909 
L 262.798632 125.382154 
L 263.453027 125.497924 
L 264.094714 124.85063 
L 264.634986 122.606068 
L 265.254337 125.425477 
L 265.862294 122.917606 
L 266.459268 124.514658 
L 267.128574 123.9963 
L 267.703299 124.821734 
L 268.348117 124.12712 
L 268.902192 124.234377 
L 269.52425 124.613207 
L 270.134815 125.517059 
L 270.734303 124.745573 
L 271.323109 122.032774 
L 271.973212 123.596955 
L 272.540537 122.993636 
L 273.78249 124.993699 
L 274.386391 124.755886 
L 274.979453 123.895218 
L 275.626164 125.011071 
L 276.197576 123.533749 
L 277.433079 124.165404 
L 278.03393 123.576188 
L 278.62405 123.776623 
L 279.261238 124.173323 
L 279.886372 124.353419 
L 280.499899 125.494852 
L 281.102243 123.791747 
L 281.693804 124.128642 
L 282.274961 122.727506 
L 282.897508 124.43914 
L 283.508543 124.087699 
L 284.108484 123.259685 
L 284.74636 125.128562 
L 285.324436 125.237554 
L 285.939481 123.632726 
L 286.543287 123.871804 
L 287.181434 123.480801 
L 287.763164 123.304758 
L 288.378397 124.024678 
L 288.982385 123.63744 
L 289.617495 124.160608 
L 290.811806 124.475348 
L 291.41302 123.467873 
L 292.042484 125.891147 
L 292.621912 123.528547 
L 293.266545 123.697211 
L 293.861982 124.916226 
L 294.483095 124.070404 
L 295.057196 124.157717 
L 295.691357 125.294981 
L 296.279316 124.278754 
L 296.890665 122.69702 
L 297.490909 123.873057 
L 298.11289 123.799416 
L 298.72338 125.657515 
L 299.322797 123.2502 
L 299.942231 124.354049 
L 300.550268 124.958707 
L 301.147319 124.667343 
L 301.762825 123.960428 
L 302.367076 124.559156 
L 302.988469 124.009671 
L 303.598394 123.634166 
L 304.197264 124.276574 
L 304.811964 123.054799 
L 305.415439 124.443237 
L 306.033618 124.124757 
L 306.640445 124.955538 
L 307.236329 124.366703 
L 307.845824 123.924518 
L 308.467995 124.024396 
L 309.078668 124.239627 
L 309.67826 125.084477 
L 310.289609 124.722658 
L 310.889853 125.49672 
L 312.101094 124.438017 
L 312.711318 124.320007 
L 313.330946 124.987636 
L 314.5364 124.037116 
L 315.161769 123.331599 
L 315.756514 123.89142 
L 316.378085 124.796113 
L 316.98818 123.904763 
L 317.587215 124.681293 
L 318.193251 124.219683 
L 318.805715 124.647316 
L 319.407034 123.405478 
L 320.014326 123.584008 
L 320.62707 124.037833 
L 321.244768 124.042377 
L 322.462094 125.22996 
L 323.681074 124.043502 
L 324.288797 123.196902 
L 324.885545 123.997183 
L 325.500038 123.915688 
L 326.103311 124.944717 
L 326.723069 124.508052 
L 327.331416 124.879789 
L 327.928767 124.067572 
L 328.541348 123.977887 
L 329.155458 123.481442 
L 330.362691 124.625615 
L 330.980162 124.823782 
L 332.193098 124.10985 
L 332.800302 124.239099 
L 333.407697 124.703374 
L 334.015074 124.069764 
L 334.632974 124.19751 
L 335.239532 124.627109 
L 336.450746 124.126569 
L 337.065055 124.747104 
L 337.668153 124.209356 
L 338.279681 124.049243 
L 338.889541 124.902163 
L 339.497621 124.508595 
L 340.103815 124.53251 
L 340.716962 124.131789 
L 341.327711 124.891227 
L 341.935987 124.15556 
L 342.541724 124.250256 
L 343.153159 124.221105 
L 343.761635 124.621009 
L 344.977399 123.884784 
L 345.584333 124.557331 
L 346.195462 123.870634 
L 347.406722 123.856294 
L 348.021177 124.064961 
L 348.624414 124.006935 
L 349.237554 124.598048 
L 349.846301 124.302412 
L 350.450693 124.300302 
L 351.063831 124.701275 
L 351.672213 124.311886 
L 352.28219 124.255895 
L 352.887294 124.455171 
L 353.499726 124.321718 
L 354.106971 124.89623 
L 356.541036 123.955276 
L 357.149714 124.495975 
L 357.758052 123.888177 
L 358.36587 124.531063 
L 359.584313 124.530541 
L 360.194438 124.244443 
L 360.803234 124.561565 
L 361.41057 123.916217 
L 362.016325 125.126599 
L 363.236208 124.07532 
L 363.8452 124.447559 
L 364.451886 125.10502 
L 365.060467 124.378764 
L 366.277995 124.492451 
L 368.106104 123.899634 
L 368.712821 124.461476 
L 369.930755 124.055759 
L 370.541412 124.485441 
L 371.148105 124.297725 
L 371.757831 124.27913 
L 372.366797 124.747739 
L 372.974843 124.465033 
L 373.581818 124.615218 
L 373.581818 124.615218 
" clip-path="url(#pbe0f3aa96d)" style="fill: none; stroke: #4c72b0; stroke-width: 1.5; stroke-linecap: round"/>
   </g>
   <g id="line2d_10">
    <path d="M 69.218182 175.335385 
L 92.123828 198.61131 
L 115.029474 220.488887 
L 122.403445 224.698109 
L 128.428418 229.206113 
L 133.52246 228.638603 
L 141.827362 233.512361 
L 148.458698 238.448189 
L 151.334064 235.546904 
L 153.979144 238.55269 
L 156.428106 238.774741 
L 158.708035 240.446277 
L 160.840766 241.422673 
L 162.844159 238.199749 
L 164.733008 243.592739 
L 166.519706 241.707823 
L 168.214737 239.387448 
L 169.82705 243.427036 
L 171.364344 241.220744 
L 172.833291 243.732548 
L 174.23971 243.631665 
L 175.588708 243.208578 
L 176.88479 243.90636 
L 178.131952 243.875749 
L 179.333752 244.201143 
L 180.493375 243.7999 
L 181.613681 245.519935 
L 182.697249 243.937452 
L 183.746412 245.196906 
L 184.763288 245.346845 
L 185.749805 243.394561 
L 186.707723 243.079089 
L 187.638654 243.492505 
L 188.544077 245.520455 
L 189.425352 246.457239 
L 190.283734 244.084192 
L 191.120383 245.017328 
L 191.936372 247.121069 
L 192.732696 246.016321 
L 193.510282 246.442795 
L 194.26999 245.75679 
L 195.012625 248.167937 
L 195.738937 247.227137 
L 196.449628 247.50249 
L 197.145356 246.542297 
L 197.826738 244.287347 
L 198.494354 248.402407 
L 199.148749 246.586104 
L 199.790436 247.134207 
L 200.4199 244.593641 
L 201.037598 246.698778 
L 201.643961 246.5178 
L 202.239398 245.052569 
L 202.824296 248.945735 
L 203.399021 247.128336 
L 203.963921 246.883651 
L 204.519327 247.540693 
L 205.065552 247.214933 
L 205.602895 246.555467 
L 206.652058 246.655416 
L 207.164407 247.499368 
L 207.668934 245.036797 
L 208.165874 245.106937 
L 208.655451 247.419623 
L 209.613369 245.190183 
L 210.082113 247.465809 
L 210.5443 247.420567 
L 211.449723 247.673783 
L 211.893298 246.577984 
L 212.330998 247.121611 
L 213.18938 248.569864 
L 213.610352 248.646772 
L 214.436542 247.05834 
L 215.638342 249.286575 
L 216.029422 247.803245 
L 216.797965 245.924977 
L 217.175636 246.646993 
L 217.918271 247.072778 
L 218.644583 245.19077 
L 219.001839 247.8366 
L 219.704969 247.534424 
L 220.393449 247.681974 
L 221.067878 247.537892 
L 221.4 248.186547 
L 222.696082 249.156897 
L 223.325546 247.09047 
L 223.943244 248.896924 
L 224.549607 248.716896 
L 225.145044 246.717859 
L 225.729942 248.332409 
L 226.304667 248.210584 
L 227.148437 248.896898 
L 227.699214 247.652131 
L 228.240962 249.03868 
L 228.773971 249.263759 
L 229.557704 248.142992 
L 230.070053 248.365724 
L 230.57458 249.58852 
L 231.317215 248.60303 
L 231.803192 247.698494 
L 232.519015 248.467203 
L 232.987759 248.261647 
L 233.678638 247.746244 
L 234.355369 248.491456 
L 234.798944 247.79722 
L 235.453339 248.740286 
L 236.095026 247.00445 
L 236.72449 248.008469 
L 237.342188 248.56497 
L 237.948551 248.826985 
L 238.543988 250.007309 
L 239.128886 246.954483 
L 239.703611 248.960681 
L 240.454686 248.283526 
L 241.550229 247.907648 
L 242.26092 248.196087 
L 242.784084 248.996115 
L 243.468997 248.278158 
L 243.973524 248.119633 
L 244.634463 249.106276 
L 245.282442 248.368459 
L 245.760222 248.051594 
L 246.386703 248.505933 
L 247.001527 248.591723 
L 247.605121 248.316398 
L 248.197888 247.842966 
L 248.9242 248.351178 
L 249.49397 249.706239 
L 250.054083 248.417003 
L 250.741132 248.200277 
L 251.280668 249.61698 
L 251.942932 249.570687 
L 252.46335 248.13752 
L 253.102555 248.280161 
L 253.72963 249.638808 
L 254.345027 247.593463 
L 254.949173 248.15544 
L 255.542472 249.543891 
L 256.125306 248.081827 
L 256.811404 248.858002 
L 257.372468 248.425387 
L 258.574268 248.859713 
L 259.211829 248.224255 
L 259.837321 248.900994 
L 260.451194 248.680757 
L 261.053871 248.816284 
L 262.22722 249.577551 
L 262.798632 248.834036 
L 263.453027 250.170794 
L 264.094714 248.05768 
L 264.634986 248.487498 
L 265.254337 249.630122 
L 265.862294 248.577865 
L 266.459268 249.565611 
L 267.128574 248.865646 
L 267.703299 248.905645 
L 268.348117 248.654561 
L 269.52425 249.593413 
L 270.134815 248.364156 
L 270.734303 248.894447 
L 271.323109 248.857875 
L 271.973212 248.421757 
L 272.540537 249.603815 
L 273.167348 248.966762 
L 273.78249 249.375093 
L 274.386391 249.133586 
L 275.626164 249.117459 
L 276.197576 250.033106 
L 276.821101 249.732608 
L 277.433079 248.967309 
L 278.03393 249.782935 
L 278.62405 248.86921 
L 279.261238 249.309977 
L 279.886372 248.823885 
L 280.499899 249.221128 
L 281.102243 250.115881 
L 281.693804 249.668313 
L 282.274961 249.069011 
L 282.897508 249.001792 
L 283.508543 249.082885 
L 284.74636 249.393224 
L 285.324436 249.181529 
L 286.543287 249.135503 
L 287.181434 249.391914 
L 287.763164 249.422024 
L 288.378397 248.932407 
L 288.982385 248.950601 
L 289.617495 249.634563 
L 290.19945 249.414531 
L 290.811806 249.421548 
L 291.41302 248.977902 
L 293.266545 249.318048 
L 293.861982 249.097561 
L 294.483095 249.280474 
L 295.057196 250.032894 
L 295.691357 249.245879 
L 296.890665 249.186337 
L 297.490909 249.01814 
L 298.11289 249.509476 
L 298.72338 249.050966 
L 299.322797 249.376229 
L 299.942231 249.134714 
L 300.550268 249.25162 
L 301.147319 249.705122 
L 301.762825 249.382267 
L 302.367076 249.528094 
L 302.988469 249.358371 
L 303.598394 249.770329 
L 304.197264 249.46679 
L 304.811964 249.00807 
L 305.415439 249.257602 
L 306.033618 249.227117 
L 306.640445 249.574452 
L 307.236329 249.17296 
L 309.078668 249.901757 
L 309.67826 249.440337 
L 310.289609 249.790237 
L 310.889853 249.486896 
L 311.501022 249.511069 
L 312.101094 249.647243 
L 312.711318 249.272082 
L 313.330946 249.421855 
L 313.939169 249.364163 
L 314.5364 249.719653 
L 315.161769 249.102896 
L 316.98818 249.689398 
L 317.587215 249.162846 
L 318.193251 249.534546 
L 319.407034 249.108403 
L 320.014326 249.288102 
L 320.62707 249.308857 
L 321.244768 249.737804 
L 321.851131 249.547621 
L 322.462094 249.657079 
L 323.061965 249.642627 
L 323.681074 249.361581 
L 324.288797 249.532703 
L 324.885545 249.392538 
L 325.500038 249.604794 
L 326.103311 249.468518 
L 327.928767 249.524062 
L 328.541348 249.295729 
L 329.155458 249.21253 
L 329.758364 249.661232 
L 330.980162 249.559829 
L 331.586307 249.304729 
L 333.407697 249.339752 
L 334.015074 249.500695 
L 334.632974 249.359155 
L 335.845512 249.577147 
L 336.450746 249.261986 
L 337.065055 249.474039 
L 337.668153 249.323883 
L 338.889541 249.399231 
L 341.327711 249.423409 
L 341.935987 249.591345 
L 343.153159 249.406311 
L 343.761635 249.619754 
L 344.367109 249.557941 
L 344.977399 249.666445 
L 345.584333 249.48442 
L 348.021177 249.519237 
L 349.237554 249.316 
L 349.846301 249.306573 
L 350.450693 249.516508 
L 351.063831 249.301451 
L 351.672213 249.575403 
L 352.28219 249.499032 
L 352.887294 249.192142 
L 353.499726 249.469657 
L 354.106971 249.331278 
L 354.714959 249.630585 
L 355.323449 249.498187 
L 355.932213 249.500462 
L 356.541036 249.683178 
L 357.149714 249.500058 
L 357.758052 249.608108 
L 358.36587 249.354921 
L 358.972995 249.577221 
L 359.584313 249.37482 
L 361.41057 249.510862 
L 363.236208 249.42977 
L 363.8452 249.628043 
L 364.451886 249.499168 
L 365.060467 249.632062 
L 365.67064 249.436982 
L 367.495985 249.598237 
L 368.712821 249.386193 
L 369.32364 249.596121 
L 372.366797 249.488151 
L 372.974843 249.616126 
L 373.581818 249.358371 
L 373.581818 249.358371 
" clip-path="url(#pbe0f3aa96d)" style="fill: none; stroke: #dd8452; stroke-width: 1.5; stroke-linecap: round"/>
   </g>
   <g id="line2d_11">
    <path d="M 69.218182 287.464738 
L 92.123828 313.561988 
L 105.522772 325.140562 
L 115.029474 334.090703 
L 122.403445 339.011965 
L 128.428418 343.952115 
L 133.52246 346.48754 
L 137.93512 344.376225 
L 141.827362 349.411716 
L 145.309091 351.687351 
L 148.458698 351.148548 
L 151.334064 354.650778 
L 153.979144 357.187546 
L 156.428106 356.789042 
L 158.708035 357.862755 
L 160.840766 357.361729 
L 162.844159 357.942987 
L 164.733008 360.661476 
L 166.519706 360.630558 
L 168.214737 359.781014 
L 169.82705 360.477294 
L 171.364344 359.501728 
L 172.833291 361.692214 
L 174.23971 361.147627 
L 175.588708 361.143479 
L 176.88479 363.064211 
L 178.131952 362.93741 
L 179.333752 362.627568 
L 180.493375 362.17983 
L 181.613681 362.820414 
L 182.697249 363.028411 
L 183.746412 363.790306 
L 184.763288 362.724643 
L 185.749805 363.611047 
L 186.707723 363.172144 
L 187.638654 362.06777 
L 188.544077 364.285601 
L 189.425352 363.108641 
L 190.283734 363.957164 
L 191.120383 364.386996 
L 191.936372 365.009194 
L 192.732696 363.056147 
L 193.510282 364.32015 
L 194.26999 364.689818 
L 195.012625 365.529208 
L 195.738937 363.702845 
L 196.449628 364.697803 
L 197.145356 363.747057 
L 197.826738 365.160885 
L 198.494354 365.53907 
L 199.148749 366.051307 
L 199.790436 366.384232 
L 201.037598 363.986994 
L 201.643961 365.930176 
L 202.239398 366.627157 
L 202.824296 365.783357 
L 203.399021 365.843043 
L 203.963921 366.250865 
L 204.519327 365.516883 
L 205.065552 364.317571 
L 205.602895 366.929504 
L 206.652058 366.397737 
L 207.164407 366.546827 
L 207.668934 366.223154 
L 208.165874 366.555256 
L 208.655451 366.695706 
L 209.613369 366.543873 
L 210.082113 366.116001 
L 211.449723 366.242042 
L 211.893298 366.816089 
L 212.330998 366.939871 
L 213.18938 365.770198 
L 213.610352 364.766784 
L 214.436542 366.872016 
L 214.842018 366.804751 
L 215.638342 365.539523 
L 216.029422 366.294009 
L 216.797965 366.216189 
L 217.175636 366.91973 
L 217.918271 367.286069 
L 218.644583 367.090238 
L 219.001839 366.668857 
L 219.704969 367.708797 
L 220.393449 366.649531 
L 221.4 367.287602 
L 222.054395 367.14991 
L 222.696082 367.640216 
L 223.325546 367.432738 
L 223.943244 367.600832 
L 225.145044 367.580652 
L 225.729942 367.257196 
L 226.304667 368.073736 
L 227.148437 368.0687 
L 227.699214 367.261643 
L 228.240962 367.720979 
L 228.773971 366.932857 
L 229.557704 367.501861 
L 230.070053 368.091048 
L 230.57458 368.385891 
L 231.803192 367.856346 
L 232.519015 367.765603 
L 232.987759 367.519062 
L 233.678638 367.773263 
L 234.355369 367.744948 
L 235.453339 368.129616 
L 236.095026 368.04887 
L 236.72449 368.528949 
L 237.342188 367.947366 
L 237.948551 367.538887 
L 238.543988 367.85812 
L 239.128886 367.930361 
L 239.703611 368.502907 
L 240.454686 367.69528 
L 241.006997 368.650031 
L 241.550229 368.273615 
L 242.26092 368.607942 
L 242.784084 367.609699 
L 243.468997 368.33793 
L 243.973524 368.205325 
L 244.634463 368.437517 
L 245.282442 367.969118 
L 247.001527 368.476695 
L 247.605121 368.355523 
L 248.197888 368.429875 
L 248.9242 368.827739 
L 249.49397 368.87169 
L 250.054083 368.284542 
L 251.280668 368.360059 
L 251.942932 367.88451 
L 252.46335 368.586068 
L 253.72963 368.432236 
L 254.345027 367.869656 
L 255.542472 368.990852 
L 256.811404 368.701947 
L 257.924165 368.587026 
L 258.574268 368.197805 
L 259.211829 368.334883 
L 259.837321 368.902362 
L 260.451194 368.474354 
L 261.053871 368.825442 
L 261.645753 368.465428 
L 262.22722 368.754985 
L 262.798632 368.499711 
L 263.453027 368.874051 
L 264.094714 368.963261 
L 264.634986 368.709838 
L 265.254337 368.612272 
L 265.862294 368.804956 
L 266.459268 368.752594 
L 267.128574 368.414936 
L 268.348117 368.943639 
L 269.52425 368.575047 
L 270.134815 368.969809 
L 270.734303 368.520689 
L 271.323109 368.955634 
L 272.540537 368.718298 
L 274.386391 369.117328 
L 274.979453 368.841157 
L 275.626164 368.962114 
L 276.821101 368.839042 
L 277.433079 369.045394 
L 278.03393 369.063265 
L 278.62405 368.919932 
L 279.886372 368.9932 
L 280.499899 368.94324 
L 281.102243 369.085691 
L 281.693804 368.669649 
L 282.274961 369.123897 
L 282.897508 368.979488 
L 283.508543 368.989304 
L 284.108484 368.874059 
L 284.74636 368.932706 
L 285.324436 368.872142 
L 285.939481 369.034948 
L 286.543287 368.864824 
L 287.181434 368.869617 
L 287.763164 369.187571 
L 288.378397 369.177626 
L 288.982385 368.976246 
L 289.617495 368.94824 
L 290.19945 369.103084 
L 292.042484 368.868292 
L 293.266545 369.069588 
L 293.861982 369.099113 
L 294.483095 368.950754 
L 295.057196 369.161318 
L 296.279316 368.961754 
L 296.890665 369.165043 
L 297.490909 368.893069 
L 298.11289 369.172674 
L 298.72338 369.119337 
L 299.322797 369.240655 
L 299.942231 369.248582 
L 300.550268 368.994207 
L 301.147319 369.053772 
L 301.762825 368.972586 
L 304.197264 369.138057 
L 305.415439 369.062624 
L 306.033618 369.270262 
L 307.845824 369.166334 
L 309.078668 369.171614 
L 310.289609 369.060614 
L 310.889853 369.232744 
L 311.501022 369.188851 
L 312.101094 369.306691 
L 312.711318 369.290931 
L 313.330946 369.087466 
L 313.939169 369.179519 
L 314.5364 369.075339 
L 316.378085 369.169685 
L 316.98818 369.16937 
L 317.587215 369.302763 
L 318.193251 369.09763 
L 319.407034 369.196639 
L 320.014326 369.126474 
L 320.62707 369.196875 
L 321.244768 369.10933 
L 321.851131 369.283219 
L 322.462094 369.037092 
L 324.885545 369.259742 
L 325.500038 369.106288 
L 326.723069 369.269174 
L 327.331416 369.244003 
L 327.928767 369.338135 
L 328.541348 369.20972 
L 339.497621 369.23557 
L 340.103815 369.155767 
L 341.327711 369.324035 
L 342.541724 369.268618 
L 343.761635 369.267165 
L 345.584333 369.224908 
L 346.195462 369.262477 
L 346.802926 369.183957 
L 348.624414 369.272319 
L 349.237554 369.259875 
L 349.846301 369.36 
L 351.063831 369.119609 
L 351.672213 369.271945 
L 352.28219 369.228167 
L 352.887294 369.34923 
L 353.499726 369.265547 
L 355.323449 369.278091 
L 356.541036 369.273415 
L 358.972995 369.291456 
L 363.236208 369.294915 
L 363.8452 369.340401 
L 365.060467 369.205683 
L 368.106104 369.316499 
L 369.930755 369.307057 
L 371.757831 369.267353 
L 373.581818 369.339966 
L 373.581818 369.339966 
" clip-path="url(#pbe0f3aa96d)" style="fill: none; stroke: #55a868; stroke-width: 1.5; stroke-linecap: round"/>
   </g>
   <g id="patch_3">
    <path d="M 54 384.48 
L 54 51.84 
" style="fill: none; stroke: #ffffff; stroke-width: 1.25; stroke-linejoin: miter; stroke-linecap: square"/>
   </g>
   <g id="patch_4">
    <path d="M 388.8 384.48 
L 388.8 51.84 
" style="fill: none; stroke: #ffffff; stroke-width: 1.25; stroke-linejoin: miter; stroke-linecap: square"/>
   </g>
   <g id="patch_5">
    <path d="M 54 384.48 
L 388.8 384.48 
" style="fill: none; stroke: #ffffff; stroke-width: 1.25; stroke-linejoin: miter; stroke-linecap: square"/>
   </g>
   <g id="patch_6">
    <path d="M 54 51.84 
L 388.8 51.84 
" style="fill: none; stroke: #ffffff; stroke-width: 1.25; stroke-linejoin: miter; stroke-linecap: square"/>
   </g>
   <g id="text_11">
    <!-- Experiment MSE plot (experimental vs normal) -->
    <g style="fill: #262626" transform="translate(80.731875 45.84) scale(0.12 -0.12)">
     <defs>
      <path id="DejaVuSans-6c" d="M 603 4863 
L 1178 4863 
L 1178 0 
L 603 0 
L 603 4863 
z
" transform="scale(0.015625)"/>
      <path id="DejaVuSans-6f" d="M 1959 3097 
Q 1497 3097 1228 2736 
Q 959 2375 959 1747 
Q 959 1119 1226 758 
Q 1494 397 1959 397 
Q 2419 397 2687 759 
Q 2956 1122 2956 1747 
Q 2956 2369 2687 2733 
Q 2419 3097 1959 3097 
z
M 1959 3584 
Q 2709 3584 3137 3096 
Q 3566 2609 3566 1747 
Q 3566 888 3137 398 
Q 2709 -91 1959 -91 
Q 1206 -91 779 398 
Q 353 888 353 1747 
Q 353 2609 779 3096 
Q 1206 3584 1959 3584 
z
" transform="scale(0.015625)"/>
      <path id="DejaVuSans-28" d="M 1984 4856 
Q 1566 4138 1362 3434 
Q 1159 2731 1159 2009 
Q 1159 1288 1364 580 
Q 1569 -128 1984 -844 
L 1484 -844 
Q 1016 -109 783 600 
Q 550 1309 550 2009 
Q 550 2706 781 3412 
Q 1013 4119 1484 4856 
L 1984 4856 
z
" transform="scale(0.015625)"/>
      <path id="DejaVuSans-61" d="M 2194 1759 
Q 1497 1759 1228 1600 
Q 959 1441 959 1056 
Q 959 750 1161 570 
Q 1363 391 1709 391 
Q 2188 391 2477 730 
Q 2766 1069 2766 1631 
L 2766 1759 
L 2194 1759 
z
M 3341 1997 
L 3341 0 
L 2766 0 
L 2766 531 
Q 2569 213 2275 61 
Q 1981 -91 1556 -91 
Q 1019 -91 701 211 
Q 384 513 384 1019 
Q 384 1609 779 1909 
Q 1175 2209 1959 2209 
L 2766 2209 
L 2766 2266 
Q 2766 2663 2505 2880 
Q 2244 3097 1772 3097 
Q 1472 3097 1187 3025 
Q 903 2953 641 2809 
L 641 3341 
Q 956 3463 1253 3523 
Q 1550 3584 1831 3584 
Q 2591 3584 2966 3190 
Q 3341 2797 3341 1997 
z
" transform="scale(0.015625)"/>
      <path id="DejaVuSans-76" d="M 191 3500 
L 800 3500 
L 1894 563 
L 2988 3500 
L 3597 3500 
L 2284 0 
L 1503 0 
L 191 3500 
z
" transform="scale(0.015625)"/>
      <path id="DejaVuSans-73" d="M 2834 3397 
L 2834 2853 
Q 2591 2978 2328 3040 
Q 2066 3103 1784 3103 
Q 1356 3103 1142 2972 
Q 928 2841 928 2578 
Q 928 2378 1081 2264 
Q 1234 2150 1697 2047 
L 1894 2003 
Q 2506 1872 2764 1633 
Q 3022 1394 3022 966 
Q 3022 478 2636 193 
Q 2250 -91 1575 -91 
Q 1294 -91 989 -36 
Q 684 19 347 128 
L 347 722 
Q 666 556 975 473 
Q 1284 391 1588 391 
Q 1994 391 2212 530 
Q 2431 669 2431 922 
Q 2431 1156 2273 1281 
Q 2116 1406 1581 1522 
L 1381 1569 
Q 847 1681 609 1914 
Q 372 2147 372 2553 
Q 372 3047 722 3315 
Q 1072 3584 1716 3584 
Q 2034 3584 2315 3537 
Q 2597 3491 2834 3397 
z
" transform="scale(0.015625)"/>
      <path id="DejaVuSans-29" d="M 513 4856 
L 1013 4856 
Q 1481 4119 1714 3412 
Q 1947 2706 1947 2009 
Q 1947 1309 1714 600 
Q 1481 -109 1013 -844 
L 513 -844 
Q 928 -128 1133 580 
Q 1338 1288 1338 2009 
Q 1338 2731 1133 3434 
Q 928 4138 513 4856 
z
" transform="scale(0.015625)"/>
     </defs>
     <use xlink:href="#DejaVuSans-45"/>
     <use xlink:href="#DejaVuSans-78" x="63.183594"/>
     <use xlink:href="#DejaVuSans-70" x="122.363281"/>
     <use xlink:href="#DejaVuSans-65" x="185.839844"/>
     <use xlink:href="#DejaVuSans-72" x="247.363281"/>
     <use xlink:href="#DejaVuSans-69" x="288.476562"/>
     <use xlink:href="#DejaVuSans-6d" x="316.259766"/>
     <use xlink:href="#DejaVuSans-65" x="413.671875"/>
     <use xlink:href="#DejaVuSans-6e" x="475.195312"/>
     <use xlink:href="#DejaVuSans-74" x="538.574219"/>
     <use xlink:href="#DejaVuSans-20" x="577.783203"/>
     <use xlink:href="#DejaVuSans-4d" x="609.570312"/>
     <use xlink:href="#DejaVuSans-53" x="695.849609"/>
     <use xlink:href="#DejaVuSans-45" x="759.326172"/>
     <use xlink:href="#DejaVuSans-20" x="822.509766"/>
     <use xlink:href="#DejaVuSans-70" x="854.296875"/>
     <use xlink:href="#DejaVuSans-6c" x="917.773438"/>
     <use xlink:href="#DejaVuSans-6f" x="945.556641"/>
     <use xlink:href="#DejaVuSans-74" x="1006.738281"/>
     <use xlink:href="#DejaVuSans-20" x="1045.947266"/>
     <use xlink:href="#DejaVuSans-28" x="1077.734375"/>
     <use xlink:href="#DejaVuSans-65" x="1116.748047"/>
     <use xlink:href="#DejaVuSans-78" x="1176.521484"/>
     <use xlink:href="#DejaVuSans-70" x="1235.701172"/>
     <use xlink:href="#DejaVuSans-65" x="1299.177734"/>
     <use xlink:href="#DejaVuSans-72" x="1360.701172"/>
     <use xlink:href="#DejaVuSans-69" x="1401.814453"/>
     <use xlink:href="#DejaVuSans-6d" x="1429.597656"/>
     <use xlink:href="#DejaVuSans-65" x="1527.009766"/>
     <use xlink:href="#DejaVuSans-6e" x="1588.533203"/>
     <use xlink:href="#DejaVuSans-74" x="1651.912109"/>
     <use xlink:href="#DejaVuSans-61" x="1691.121094"/>
     <use xlink:href="#DejaVuSans-6c" x="1752.400391"/>
     <use xlink:href="#DejaVuSans-20" x="1780.183594"/>
     <use xlink:href="#DejaVuSans-76" x="1811.970703"/>
     <use xlink:href="#DejaVuSans-73" x="1871.150391"/>
     <use xlink:href="#DejaVuSans-20" x="1923.25"/>
     <use xlink:href="#DejaVuSans-6e" x="1955.037109"/>
     <use xlink:href="#DejaVuSans-6f" x="2018.416016"/>
     <use xlink:href="#DejaVuSans-72" x="2079.597656"/>
     <use xlink:href="#DejaVuSans-6d" x="2118.960938"/>
     <use xlink:href="#DejaVuSans-61" x="2216.373047"/>
     <use xlink:href="#DejaVuSans-6c" x="2277.652344"/>
     <use xlink:href="#DejaVuSans-29" x="2305.435547"/>
    </g>
   </g>
   <g id="legend_1">
    <g id="patch_7">
     <path d="M 254.82 109.077812 
L 381.1 109.077812 
Q 383.3 109.077812 383.3 106.877813 
L 383.3 59.54 
Q 383.3 57.34 381.1 57.34 
L 254.82 57.34 
Q 252.62 57.34 252.62 59.54 
L 252.62 106.877813 
Q 252.62 109.077812 254.82 109.077812 
z
" style="fill: #eaeaf2; opacity: 0.8; stroke: #cccccc; stroke-linejoin: miter"/>
    </g>
    <g id="line2d_12">
     <path d="M 257.02 66.248281 
L 268.02 66.248281 
L 279.02 66.248281 
" style="fill: none; stroke: #4c72b0; stroke-width: 1.5; stroke-linecap: round"/>
    </g>
    <g id="text_12">
     <!-- MSE for $H$=10 -->
     <g style="fill: #262626" transform="translate(287.82 70.098281) scale(0.11 -0.11)">
      <defs>
       <path id="DejaVuSans-66" d="M 2375 4863 
L 2375 4384 
L 1825 4384 
Q 1516 4384 1395 4259 
Q 1275 4134 1275 3809 
L 1275 3500 
L 2222 3500 
L 2222 3053 
L 1275 3053 
L 1275 0 
L 697 0 
L 697 3053 
L 147 3053 
L 147 3500 
L 697 3500 
L 697 3744 
Q 697 4328 969 4595 
Q 1241 4863 1831 4863 
L 2375 4863 
z
" transform="scale(0.015625)"/>
       <path id="DejaVuSans-Oblique-48" d="M 1081 4666 
L 1716 4666 
L 1344 2753 
L 3634 2753 
L 4006 4666 
L 4641 4666 
L 3731 0 
L 3097 0 
L 3531 2222 
L 1241 2222 
L 806 0 
L 172 0 
L 1081 4666 
z
" transform="scale(0.015625)"/>
       <path id="DejaVuSans-3d" d="M 678 2906 
L 4684 2906 
L 4684 2381 
L 678 2381 
L 678 2906 
z
M 678 1631 
L 4684 1631 
L 4684 1100 
L 678 1100 
L 678 1631 
z
" transform="scale(0.015625)"/>
      </defs>
      <use xlink:href="#DejaVuSans-4d" transform="translate(0 0.015625)"/>
      <use xlink:href="#DejaVuSans-53" transform="translate(86.279297 0.015625)"/>
      <use xlink:href="#DejaVuSans-45" transform="translate(149.755859 0.015625)"/>
      <use xlink:href="#DejaVuSans-20" transform="translate(212.939453 0.015625)"/>
      <use xlink:href="#DejaVuSans-66" transform="translate(244.726562 0.015625)"/>
      <use xlink:href="#DejaVuSans-6f" transform="translate(279.931641 0.015625)"/>
      <use xlink:href="#DejaVuSans-72" transform="translate(341.113281 0.015625)"/>
      <use xlink:href="#DejaVuSans-20" transform="translate(382.226562 0.015625)"/>
      <use xlink:href="#DejaVuSans-Oblique-48" transform="translate(414.013672 0.015625)"/>
      <use xlink:href="#DejaVuSans-3d" transform="translate(489.208984 0.015625)"/>
      <use xlink:href="#DejaVuSans-31" transform="translate(572.998047 0.015625)"/>
      <use xlink:href="#DejaVuSans-30" transform="translate(636.621094 0.015625)"/>
     </g>
    </g>
    <g id="line2d_13">
     <path d="M 257.02 82.394219 
L 268.02 82.394219 
L 279.02 82.394219 
" style="fill: none; stroke: #dd8452; stroke-width: 1.5; stroke-linecap: round"/>
    </g>
    <g id="text_13">
     <!-- MSE for $H$=100 -->
     <g style="fill: #262626" transform="translate(287.82 86.244219) scale(0.11 -0.11)">
      <use xlink:href="#DejaVuSans-4d" transform="translate(0 0.015625)"/>
      <use xlink:href="#DejaVuSans-53" transform="translate(86.279297 0.015625)"/>
      <use xlink:href="#DejaVuSans-45" transform="translate(149.755859 0.015625)"/>
      <use xlink:href="#DejaVuSans-20" transform="translate(212.939453 0.015625)"/>
      <use xlink:href="#DejaVuSans-66" transform="translate(244.726562 0.015625)"/>
      <use xlink:href="#DejaVuSans-6f" transform="translate(279.931641 0.015625)"/>
      <use xlink:href="#DejaVuSans-72" transform="translate(341.113281 0.015625)"/>
      <use xlink:href="#DejaVuSans-20" transform="translate(382.226562 0.015625)"/>
      <use xlink:href="#DejaVuSans-Oblique-48" transform="translate(414.013672 0.015625)"/>
      <use xlink:href="#DejaVuSans-3d" transform="translate(489.208984 0.015625)"/>
      <use xlink:href="#DejaVuSans-31" transform="translate(572.998047 0.015625)"/>
      <use xlink:href="#DejaVuSans-30" transform="translate(636.621094 0.015625)"/>
      <use xlink:href="#DejaVuSans-30" transform="translate(700.244141 0.015625)"/>
     </g>
    </g>
    <g id="line2d_14">
     <path d="M 257.02 98.540156 
L 268.02 98.540156 
L 279.02 98.540156 
" style="fill: none; stroke: #55a868; stroke-width: 1.5; stroke-linecap: round"/>
    </g>
    <g id="text_14">
     <!-- MSE for $H$=1000 -->
     <g style="fill: #262626" transform="translate(287.82 102.390156) scale(0.11 -0.11)">
      <use xlink:href="#DejaVuSans-4d" transform="translate(0 0.015625)"/>
      <use xlink:href="#DejaVuSans-53" transform="translate(86.279297 0.015625)"/>
      <use xlink:href="#DejaVuSans-45" transform="translate(149.755859 0.015625)"/>
      <use xlink:href="#DejaVuSans-20" transform="translate(212.939453 0.015625)"/>
      <use xlink:href="#DejaVuSans-66" transform="translate(244.726562 0.015625)"/>
      <use xlink:href="#DejaVuSans-6f" transform="translate(279.931641 0.015625)"/>
      <use xlink:href="#DejaVuSans-72" transform="translate(341.113281 0.015625)"/>
      <use xlink:href="#DejaVuSans-20" transform="translate(382.226562 0.015625)"/>
      <use xlink:href="#DejaVuSans-Oblique-48" transform="translate(414.013672 0.015625)"/>
      <use xlink:href="#DejaVuSans-3d" transform="translate(489.208984 0.015625)"/>
      <use xlink:href="#DejaVuSans-31" transform="translate(572.998047 0.015625)"/>
      <use xlink:href="#DejaVuSans-30" transform="translate(636.621094 0.015625)"/>
      <use xlink:href="#DejaVuSans-30" transform="translate(700.244141 0.015625)"/>
      <use xlink:href="#DejaVuSans-30" transform="translate(763.867188 0.015625)"/>
     </g>
    </g>
   </g>
  </g>
 </g>
 <defs>
  <clipPath id="pbe0f3aa96d">
   <rect x="54" y="51.84" width="334.8" height="332.64"/>
  </clipPath>
 </defs>
</svg>
