<?xml version="1.0" encoding="utf-8" standalone="no"?>
<!DOCTYPE svg PUBLIC "-//W3C//DTD SVG 1.1//EN"
  "http://www.w3.org/Graphics/SVG/1.1/DTD/svg11.dtd">
<svg xmlns:xlink="http://www.w3.org/1999/xlink" width="432pt" height="432pt" viewBox="0 0 432 432" xmlns="http://www.w3.org/2000/svg" version="1.1">
 <metadata>
  <rdf:RDF xmlns:dc="http://purl.org/dc/elements/1.1/" xmlns:cc="http://creativecommons.org/ns#" xmlns:rdf="http://www.w3.org/1999/02/22-rdf-syntax-ns#">
   <cc:Work>
    <dc:type rdf:resource="http://purl.org/dc/dcmitype/StillImage"/>
    <dc:date>2024-10-12T21:16:19.786942</dc:date>
    <dc:format>image/svg+xml</dc:format>
    <dc:creator>
     <cc:Agent>
      <dc:title>Matplotlib v3.8.4, https://matplotlib.org/</dc:title>
     </cc:Agent>
    </dc:creator>
   </cc:Work>
  </rdf:RDF>
 </metadata>
 <defs>
  <style type="text/css">*{stroke-linejoin: round; stroke-linecap: butt}</style>
 </defs>
 <g id="figure_1">
  <g id="patch_1">
   <path d="M 0 432 
L 432 432 
L 432 0 
L 0 0 
z
" style="fill: #ffffff"/>
  </g>
  <g id="axes_1">
   <g id="patch_2">
    <path d="M 54 384.48 
L 388.8 384.48 
L 388.8 51.84 
L 54 51.84 
z
" style="fill: #eaeaf2"/>
   </g>
   <g id="matplotlib.axis_1">
    <g id="xtick_1">
     <g id="line2d_1">
      <path d="M 69.218182 384.48 
L 69.218182 51.84 
" clip-path="url(#pe256fdc28e)" style="fill: none; stroke: #ffffff; stroke-linecap: round"/>
     </g>
     <g id="text_1">
      <!-- $\mathdefault{10^{0}}$ -->
      <g style="fill: #262626" transform="translate(59.538182 402.338281) scale(0.11 -0.11)">
       <defs>
        <path id="DejaVuSans-31" d="M 794 531 
L 1825 531 
L 1825 4091 
L 703 3866 
L 703 4441 
L 1819 4666 
L 2450 4666 
L 2450 531 
L 3481 531 
L 3481 0 
L 794 0 
L 794 531 
z
" transform="scale(0.015625)"/>
        <path id="DejaVuSans-30" d="M 2034 4250 
Q 1547 4250 1301 3770 
Q 1056 3291 1056 2328 
Q 1056 1369 1301 889 
Q 1547 409 2034 409 
Q 2525 409 2770 889 
Q 3016 1369 3016 2328 
Q 3016 3291 2770 3770 
Q 2525 4250 2034 4250 
z
M 2034 4750 
Q 2819 4750 3233 4129 
Q 3647 3509 3647 2328 
Q 3647 1150 3233 529 
Q 2819 -91 2034 -91 
Q 1250 -91 836 529 
Q 422 1150 422 2328 
Q 422 3509 836 4129 
Q 1250 4750 2034 4750 
z
" transform="scale(0.015625)"/>
       </defs>
       <use xlink:href="#DejaVuSans-31" transform="translate(0 0.765625)"/>
       <use xlink:href="#DejaVuSans-30" transform="translate(63.623047 0.765625)"/>
       <use xlink:href="#DejaVuSans-30" transform="translate(128.203125 39.046875) scale(0.7)"/>
      </g>
     </g>
    </g>
    <g id="xtick_2">
     <g id="line2d_2">
      <path d="M 145.309091 384.48 
L 145.309091 51.84 
" clip-path="url(#pe256fdc28e)" style="fill: none; stroke: #ffffff; stroke-linecap: round"/>
     </g>
     <g id="text_2">
      <!-- $\mathdefault{10^{1}}$ -->
      <g style="fill: #262626" transform="translate(135.629091 402.338281) scale(0.11 -0.11)">
       <use xlink:href="#DejaVuSans-31" transform="translate(0 0.684375)"/>
       <use xlink:href="#DejaVuSans-30" transform="translate(63.623047 0.684375)"/>
       <use xlink:href="#DejaVuSans-31" transform="translate(128.203125 38.965625) scale(0.7)"/>
      </g>
     </g>
    </g>
    <g id="xtick_3">
     <g id="line2d_3">
      <path d="M 221.4 384.48 
L 221.4 51.84 
" clip-path="url(#pe256fdc28e)" style="fill: none; stroke: #ffffff; stroke-linecap: round"/>
     </g>
     <g id="text_3">
      <!-- $\mathdefault{10^{2}}$ -->
      <g style="fill: #262626" transform="translate(211.72 402.338281) scale(0.11 -0.11)">
       <defs>
        <path id="DejaVuSans-32" d="M 1228 531 
L 3431 531 
L 3431 0 
L 469 0 
L 469 531 
Q 828 903 1448 1529 
Q 2069 2156 2228 2338 
Q 2531 2678 2651 2914 
Q 2772 3150 2772 3378 
Q 2772 3750 2511 3984 
Q 2250 4219 1831 4219 
Q 1534 4219 1204 4116 
Q 875 4013 500 3803 
L 500 4441 
Q 881 4594 1212 4672 
Q 1544 4750 1819 4750 
Q 2544 4750 2975 4387 
Q 3406 4025 3406 3419 
Q 3406 3131 3298 2873 
Q 3191 2616 2906 2266 
Q 2828 2175 2409 1742 
Q 1991 1309 1228 531 
z
" transform="scale(0.015625)"/>
       </defs>
       <use xlink:href="#DejaVuSans-31" transform="translate(0 0.765625)"/>
       <use xlink:href="#DejaVuSans-30" transform="translate(63.623047 0.765625)"/>
       <use xlink:href="#DejaVuSans-32" transform="translate(128.203125 39.046875) scale(0.7)"/>
      </g>
     </g>
    </g>
    <g id="xtick_4">
     <g id="line2d_4">
      <path d="M 297.490909 384.48 
L 297.490909 51.84 
" clip-path="url(#pe256fdc28e)" style="fill: none; stroke: #ffffff; stroke-linecap: round"/>
     </g>
     <g id="text_4">
      <!-- $\mathdefault{10^{3}}$ -->
      <g style="fill: #262626" transform="translate(287.810909 402.338281) scale(0.11 -0.11)">
       <defs>
        <path id="DejaVuSans-33" d="M 2597 2516 
Q 3050 2419 3304 2112 
Q 3559 1806 3559 1356 
Q 3559 666 3084 287 
Q 2609 -91 1734 -91 
Q 1441 -91 1130 -33 
Q 819 25 488 141 
L 488 750 
Q 750 597 1062 519 
Q 1375 441 1716 441 
Q 2309 441 2620 675 
Q 2931 909 2931 1356 
Q 2931 1769 2642 2001 
Q 2353 2234 1838 2234 
L 1294 2234 
L 1294 2753 
L 1863 2753 
Q 2328 2753 2575 2939 
Q 2822 3125 2822 3475 
Q 2822 3834 2567 4026 
Q 2313 4219 1838 4219 
Q 1578 4219 1281 4162 
Q 984 4106 628 3988 
L 628 4550 
Q 988 4650 1302 4700 
Q 1616 4750 1894 4750 
Q 2613 4750 3031 4423 
Q 3450 4097 3450 3541 
Q 3450 3153 3228 2886 
Q 3006 2619 2597 2516 
z
" transform="scale(0.015625)"/>
       </defs>
       <use xlink:href="#DejaVuSans-31" transform="translate(0 0.765625)"/>
       <use xlink:href="#DejaVuSans-30" transform="translate(63.623047 0.765625)"/>
       <use xlink:href="#DejaVuSans-33" transform="translate(128.203125 39.046875) scale(0.7)"/>
      </g>
     </g>
    </g>
    <g id="xtick_5">
     <g id="line2d_5">
      <path d="M 373.581818 384.48 
L 373.581818 51.84 
" clip-path="url(#pe256fdc28e)" style="fill: none; stroke: #ffffff; stroke-linecap: round"/>
     </g>
     <g id="text_5">
      <!-- $\mathdefault{10^{4}}$ -->
      <g style="fill: #262626" transform="translate(363.901818 402.338281) scale(0.11 -0.11)">
       <defs>
        <path id="DejaVuSans-34" d="M 2419 4116 
L 825 1625 
L 2419 1625 
L 2419 4116 
z
M 2253 4666 
L 3047 4666 
L 3047 1625 
L 3713 1625 
L 3713 1100 
L 3047 1100 
L 3047 0 
L 2419 0 
L 2419 1100 
L 313 1100 
L 313 1709 
L 2253 4666 
z
" transform="scale(0.015625)"/>
       </defs>
       <use xlink:href="#DejaVuSans-31" transform="translate(0 0.684375)"/>
       <use xlink:href="#DejaVuSans-30" transform="translate(63.623047 0.684375)"/>
       <use xlink:href="#DejaVuSans-34" transform="translate(128.203125 38.965625) scale(0.7)"/>
      </g>
     </g>
    </g>
    <g id="xtick_6"/>
    <g id="xtick_7"/>
    <g id="xtick_8"/>
    <g id="xtick_9"/>
    <g id="xtick_10"/>
    <g id="xtick_11"/>
    <g id="xtick_12"/>
    <g id="xtick_13"/>
    <g id="xtick_14"/>
    <g id="xtick_15"/>
    <g id="xtick_16"/>
    <g id="xtick_17"/>
    <g id="xtick_18"/>
    <g id="xtick_19"/>
    <g id="xtick_20"/>
    <g id="xtick_21"/>
    <g id="xtick_22"/>
    <g id="xtick_23"/>
    <g id="xtick_24"/>
    <g id="xtick_25"/>
    <g id="xtick_26"/>
    <g id="xtick_27"/>
    <g id="xtick_28"/>
    <g id="xtick_29"/>
    <g id="xtick_30"/>
    <g id="xtick_31"/>
    <g id="xtick_32"/>
    <g id="xtick_33"/>
    <g id="xtick_34"/>
    <g id="xtick_35"/>
    <g id="xtick_36"/>
    <g id="xtick_37"/>
    <g id="xtick_38"/>
    <g id="xtick_39"/>
    <g id="xtick_40"/>
    <g id="text_6">
     <!-- $N$ -->
     <g style="fill: #262626" transform="translate(216.9 417.744062) scale(0.12 -0.12)">
      <defs>
       <path id="DejaVuSans-Oblique-4e" d="M 1081 4666 
L 1931 4666 
L 3219 666 
L 4000 4666 
L 4616 4666 
L 3706 0 
L 2853 0 
L 1569 4025 
L 788 0 
L 172 0 
L 1081 4666 
z
" transform="scale(0.015625)"/>
      </defs>
      <use xlink:href="#DejaVuSans-Oblique-4e" transform="translate(0 0.09375)"/>
     </g>
    </g>
   </g>
   <g id="matplotlib.axis_2">
    <g id="ytick_1">
     <g id="line2d_6">
      <path d="M 54 360.811293 
L 388.8 360.811293 
" clip-path="url(#pe256fdc28e)" style="fill: none; stroke: #ffffff; stroke-linecap: round"/>
     </g>
     <g id="text_7">
      <!-- $\mathdefault{10^{-7}}$ -->
      <g style="fill: #262626" transform="translate(18.65 364.990434) scale(0.11 -0.11)">
       <defs>
        <path id="DejaVuSans-2212" d="M 678 2272 
L 4684 2272 
L 4684 1741 
L 678 1741 
L 678 2272 
z
" transform="scale(0.015625)"/>
        <path id="DejaVuSans-37" d="M 525 4666 
L 3525 4666 
L 3525 4397 
L 1831 0 
L 1172 0 
L 2766 4134 
L 525 4134 
L 525 4666 
z
" transform="scale(0.015625)"/>
       </defs>
       <use xlink:href="#DejaVuSans-31" transform="translate(0 0.684375)"/>
       <use xlink:href="#DejaVuSans-30" transform="translate(63.623047 0.684375)"/>
       <use xlink:href="#DejaVuSans-2212" transform="translate(128.203125 38.965625) scale(0.7)"/>
       <use xlink:href="#DejaVuSans-37" transform="translate(186.855469 38.965625) scale(0.7)"/>
      </g>
     </g>
    </g>
    <g id="ytick_2">
     <g id="line2d_7">
      <path d="M 54 310.518914 
L 388.8 310.518914 
" clip-path="url(#pe256fdc28e)" style="fill: none; stroke: #ffffff; stroke-linecap: round"/>
     </g>
     <g id="text_8">
      <!-- $\mathdefault{10^{-6}}$ -->
      <g style="fill: #262626" transform="translate(18.65 314.698054) scale(0.11 -0.11)">
       <defs>
        <path id="DejaVuSans-36" d="M 2113 2584 
Q 1688 2584 1439 2293 
Q 1191 2003 1191 1497 
Q 1191 994 1439 701 
Q 1688 409 2113 409 
Q 2538 409 2786 701 
Q 3034 994 3034 1497 
Q 3034 2003 2786 2293 
Q 2538 2584 2113 2584 
z
M 3366 4563 
L 3366 3988 
Q 3128 4100 2886 4159 
Q 2644 4219 2406 4219 
Q 1781 4219 1451 3797 
Q 1122 3375 1075 2522 
Q 1259 2794 1537 2939 
Q 1816 3084 2150 3084 
Q 2853 3084 3261 2657 
Q 3669 2231 3669 1497 
Q 3669 778 3244 343 
Q 2819 -91 2113 -91 
Q 1303 -91 875 529 
Q 447 1150 447 2328 
Q 447 3434 972 4092 
Q 1497 4750 2381 4750 
Q 2619 4750 2861 4703 
Q 3103 4656 3366 4563 
z
" transform="scale(0.015625)"/>
       </defs>
       <use xlink:href="#DejaVuSans-31" transform="translate(0 0.765625)"/>
       <use xlink:href="#DejaVuSans-30" transform="translate(63.623047 0.765625)"/>
       <use xlink:href="#DejaVuSans-2212" transform="translate(128.203125 39.046875) scale(0.7)"/>
       <use xlink:href="#DejaVuSans-36" transform="translate(186.855469 39.046875) scale(0.7)"/>
      </g>
     </g>
    </g>
    <g id="ytick_3">
     <g id="line2d_8">
      <path d="M 54 260.226534 
L 388.8 260.226534 
" clip-path="url(#pe256fdc28e)" style="fill: none; stroke: #ffffff; stroke-linecap: round"/>
     </g>
     <g id="text_9">
      <!-- $\mathdefault{10^{-5}}$ -->
      <g style="fill: #262626" transform="translate(18.65 264.405675) scale(0.11 -0.11)">
       <defs>
        <path id="DejaVuSans-35" d="M 691 4666 
L 3169 4666 
L 3169 4134 
L 1269 4134 
L 1269 2991 
Q 1406 3038 1543 3061 
Q 1681 3084 1819 3084 
Q 2600 3084 3056 2656 
Q 3513 2228 3513 1497 
Q 3513 744 3044 326 
Q 2575 -91 1722 -91 
Q 1428 -91 1123 -41 
Q 819 9 494 109 
L 494 744 
Q 775 591 1075 516 
Q 1375 441 1709 441 
Q 2250 441 2565 725 
Q 2881 1009 2881 1497 
Q 2881 1984 2565 2268 
Q 2250 2553 1709 2553 
Q 1456 2553 1204 2497 
Q 953 2441 691 2322 
L 691 4666 
z
" transform="scale(0.015625)"/>
       </defs>
       <use xlink:href="#DejaVuSans-31" transform="translate(0 0.684375)"/>
       <use xlink:href="#DejaVuSans-30" transform="translate(63.623047 0.684375)"/>
       <use xlink:href="#DejaVuSans-2212" transform="translate(128.203125 38.965625) scale(0.7)"/>
       <use xlink:href="#DejaVuSans-35" transform="translate(186.855469 38.965625) scale(0.7)"/>
      </g>
     </g>
    </g>
    <g id="ytick_4">
     <g id="line2d_9">
      <path d="M 54 209.934155 
L 388.8 209.934155 
" clip-path="url(#pe256fdc28e)" style="fill: none; stroke: #ffffff; stroke-linecap: round"/>
     </g>
     <g id="text_10">
      <!-- $\mathdefault{10^{-4}}$ -->
      <g style="fill: #262626" transform="translate(18.65 214.113295) scale(0.11 -0.11)">
       <use xlink:href="#DejaVuSans-31" transform="translate(0 0.684375)"/>
       <use xlink:href="#DejaVuSans-30" transform="translate(63.623047 0.684375)"/>
       <use xlink:href="#DejaVuSans-2212" transform="translate(128.203125 38.965625) scale(0.7)"/>
       <use xlink:href="#DejaVuSans-34" transform="translate(186.855469 38.965625) scale(0.7)"/>
      </g>
     </g>
    </g>
    <g id="ytick_5">
     <g id="line2d_10">
      <path d="M 54 159.641775 
L 388.8 159.641775 
" clip-path="url(#pe256fdc28e)" style="fill: none; stroke: #ffffff; stroke-linecap: round"/>
     </g>
     <g id="text_11">
      <!-- $\mathdefault{10^{-3}}$ -->
      <g style="fill: #262626" transform="translate(18.65 163.820916) scale(0.11 -0.11)">
       <use xlink:href="#DejaVuSans-31" transform="translate(0 0.765625)"/>
       <use xlink:href="#DejaVuSans-30" transform="translate(63.623047 0.765625)"/>
       <use xlink:href="#DejaVuSans-2212" transform="translate(128.203125 39.046875) scale(0.7)"/>
       <use xlink:href="#DejaVuSans-33" transform="translate(186.855469 39.046875) scale(0.7)"/>
      </g>
     </g>
    </g>
    <g id="ytick_6">
     <g id="line2d_11">
      <path d="M 54 109.349396 
L 388.8 109.349396 
" clip-path="url(#pe256fdc28e)" style="fill: none; stroke: #ffffff; stroke-linecap: round"/>
     </g>
     <g id="text_12">
      <!-- $\mathdefault{10^{-2}}$ -->
      <g style="fill: #262626" transform="translate(18.65 113.528536) scale(0.11 -0.11)">
       <use xlink:href="#DejaVuSans-31" transform="translate(0 0.765625)"/>
       <use xlink:href="#DejaVuSans-30" transform="translate(63.623047 0.765625)"/>
       <use xlink:href="#DejaVuSans-2212" transform="translate(128.203125 39.046875) scale(0.7)"/>
       <use xlink:href="#DejaVuSans-32" transform="translate(186.855469 39.046875) scale(0.7)"/>
      </g>
     </g>
    </g>
    <g id="ytick_7">
     <g id="line2d_12">
      <path d="M 54 59.057016 
L 388.8 59.057016 
" clip-path="url(#pe256fdc28e)" style="fill: none; stroke: #ffffff; stroke-linecap: round"/>
     </g>
     <g id="text_13">
      <!-- $\mathdefault{10^{-1}}$ -->
      <g style="fill: #262626" transform="translate(18.65 63.236157) scale(0.11 -0.11)">
       <use xlink:href="#DejaVuSans-31" transform="translate(0 0.684375)"/>
       <use xlink:href="#DejaVuSans-30" transform="translate(63.623047 0.684375)"/>
       <use xlink:href="#DejaVuSans-2212" transform="translate(128.203125 38.965625) scale(0.7)"/>
       <use xlink:href="#DejaVuSans-31" transform="translate(186.855469 38.965625) scale(0.7)"/>
      </g>
     </g>
    </g>
    <g id="ytick_8"/>
    <g id="ytick_9"/>
    <g id="ytick_10"/>
    <g id="ytick_11"/>
    <g id="ytick_12"/>
    <g id="ytick_13"/>
    <g id="ytick_14"/>
    <g id="ytick_15"/>
    <g id="ytick_16"/>
    <g id="ytick_17"/>
    <g id="ytick_18"/>
    <g id="ytick_19"/>
    <g id="ytick_20"/>
    <g id="ytick_21"/>
    <g id="ytick_22"/>
    <g id="ytick_23"/>
    <g id="ytick_24"/>
    <g id="ytick_25"/>
    <g id="ytick_26"/>
    <g id="ytick_27"/>
    <g id="ytick_28"/>
    <g id="ytick_29"/>
    <g id="ytick_30"/>
    <g id="ytick_31"/>
    <g id="ytick_32"/>
    <g id="ytick_33"/>
    <g id="ytick_34"/>
    <g id="ytick_35"/>
    <g id="ytick_36"/>
    <g id="ytick_37"/>
    <g id="ytick_38"/>
    <g id="ytick_39"/>
    <g id="ytick_40"/>
    <g id="ytick_41"/>
    <g id="ytick_42"/>
    <g id="ytick_43"/>
    <g id="ytick_44"/>
    <g id="ytick_45"/>
    <g id="ytick_46"/>
    <g id="ytick_47"/>
    <g id="ytick_48"/>
    <g id="ytick_49"/>
    <g id="ytick_50"/>
    <g id="ytick_51"/>
    <g id="ytick_52"/>
    <g id="ytick_53"/>
    <g id="ytick_54"/>
    <g id="ytick_55"/>
    <g id="ytick_56"/>
    <g id="ytick_57"/>
    <g id="ytick_58"/>
    <g id="ytick_59"/>
    <g id="ytick_60"/>
    <g id="ytick_61"/>
    <g id="text_14">
     <!-- experiment MSE -->
     <g style="fill: #262626" transform="translate(12.154375 267.3075) rotate(-90) scale(0.12 -0.12)">
      <defs>
       <path id="DejaVuSans-65" d="M 3597 1894 
L 3597 1613 
L 953 1613 
Q 991 1019 1311 708 
Q 1631 397 2203 397 
Q 2534 397 2845 478 
Q 3156 559 3463 722 
L 3463 178 
Q 3153 47 2828 -22 
Q 2503 -91 2169 -91 
Q 1331 -91 842 396 
Q 353 884 353 1716 
Q 353 2575 817 3079 
Q 1281 3584 2069 3584 
Q 2775 3584 3186 3129 
Q 3597 2675 3597 1894 
z
M 3022 2063 
Q 3016 2534 2758 2815 
Q 2500 3097 2075 3097 
Q 1594 3097 1305 2825 
Q 1016 2553 972 2059 
L 3022 2063 
z
" transform="scale(0.015625)"/>
       <path id="DejaVuSans-78" d="M 3513 3500 
L 2247 1797 
L 3578 0 
L 2900 0 
L 1881 1375 
L 863 0 
L 184 0 
L 1544 1831 
L 300 3500 
L 978 3500 
L 1906 2253 
L 2834 3500 
L 3513 3500 
z
" transform="scale(0.015625)"/>
       <path id="DejaVuSans-70" d="M 1159 525 
L 1159 -1331 
L 581 -1331 
L 581 3500 
L 1159 3500 
L 1159 2969 
Q 1341 3281 1617 3432 
Q 1894 3584 2278 3584 
Q 2916 3584 3314 3078 
Q 3713 2572 3713 1747 
Q 3713 922 3314 415 
Q 2916 -91 2278 -91 
Q 1894 -91 1617 61 
Q 1341 213 1159 525 
z
M 3116 1747 
Q 3116 2381 2855 2742 
Q 2594 3103 2138 3103 
Q 1681 3103 1420 2742 
Q 1159 2381 1159 1747 
Q 1159 1113 1420 752 
Q 1681 391 2138 391 
Q 2594 391 2855 752 
Q 3116 1113 3116 1747 
z
" transform="scale(0.015625)"/>
       <path id="DejaVuSans-72" d="M 2631 2963 
Q 2534 3019 2420 3045 
Q 2306 3072 2169 3072 
Q 1681 3072 1420 2755 
Q 1159 2438 1159 1844 
L 1159 0 
L 581 0 
L 581 3500 
L 1159 3500 
L 1159 2956 
Q 1341 3275 1631 3429 
Q 1922 3584 2338 3584 
Q 2397 3584 2469 3576 
Q 2541 3569 2628 3553 
L 2631 2963 
z
" transform="scale(0.015625)"/>
       <path id="DejaVuSans-69" d="M 603 3500 
L 1178 3500 
L 1178 0 
L 603 0 
L 603 3500 
z
M 603 4863 
L 1178 4863 
L 1178 4134 
L 603 4134 
L 603 4863 
z
" transform="scale(0.015625)"/>
       <path id="DejaVuSans-6d" d="M 3328 2828 
Q 3544 3216 3844 3400 
Q 4144 3584 4550 3584 
Q 5097 3584 5394 3201 
Q 5691 2819 5691 2113 
L 5691 0 
L 5113 0 
L 5113 2094 
Q 5113 2597 4934 2840 
Q 4756 3084 4391 3084 
Q 3944 3084 3684 2787 
Q 3425 2491 3425 1978 
L 3425 0 
L 2847 0 
L 2847 2094 
Q 2847 2600 2669 2842 
Q 2491 3084 2119 3084 
Q 1678 3084 1418 2786 
Q 1159 2488 1159 1978 
L 1159 0 
L 581 0 
L 581 3500 
L 1159 3500 
L 1159 2956 
Q 1356 3278 1631 3431 
Q 1906 3584 2284 3584 
Q 2666 3584 2933 3390 
Q 3200 3197 3328 2828 
z
" transform="scale(0.015625)"/>
       <path id="DejaVuSans-6e" d="M 3513 2113 
L 3513 0 
L 2938 0 
L 2938 2094 
Q 2938 2591 2744 2837 
Q 2550 3084 2163 3084 
Q 1697 3084 1428 2787 
Q 1159 2491 1159 1978 
L 1159 0 
L 581 0 
L 581 3500 
L 1159 3500 
L 1159 2956 
Q 1366 3272 1645 3428 
Q 1925 3584 2291 3584 
Q 2894 3584 3203 3211 
Q 3513 2838 3513 2113 
z
" transform="scale(0.015625)"/>
       <path id="DejaVuSans-74" d="M 1172 4494 
L 1172 3500 
L 2356 3500 
L 2356 3053 
L 1172 3053 
L 1172 1153 
Q 1172 725 1289 603 
Q 1406 481 1766 481 
L 2356 481 
L 2356 0 
L 1766 0 
Q 1100 0 847 248 
Q 594 497 594 1153 
L 594 3053 
L 172 3053 
L 172 3500 
L 594 3500 
L 594 4494 
L 1172 4494 
z
" transform="scale(0.015625)"/>
       <path id="DejaVuSans-20" transform="scale(0.015625)"/>
       <path id="DejaVuSans-4d" d="M 628 4666 
L 1569 4666 
L 2759 1491 
L 3956 4666 
L 4897 4666 
L 4897 0 
L 4281 0 
L 4281 4097 
L 3078 897 
L 2444 897 
L 1241 4097 
L 1241 0 
L 628 0 
L 628 4666 
z
" transform="scale(0.015625)"/>
       <path id="DejaVuSans-53" d="M 3425 4513 
L 3425 3897 
Q 3066 4069 2747 4153 
Q 2428 4238 2131 4238 
Q 1616 4238 1336 4038 
Q 1056 3838 1056 3469 
Q 1056 3159 1242 3001 
Q 1428 2844 1947 2747 
L 2328 2669 
Q 3034 2534 3370 2195 
Q 3706 1856 3706 1288 
Q 3706 609 3251 259 
Q 2797 -91 1919 -91 
Q 1588 -91 1214 -16 
Q 841 59 441 206 
L 441 856 
Q 825 641 1194 531 
Q 1563 422 1919 422 
Q 2459 422 2753 634 
Q 3047 847 3047 1241 
Q 3047 1584 2836 1778 
Q 2625 1972 2144 2069 
L 1759 2144 
Q 1053 2284 737 2584 
Q 422 2884 422 3419 
Q 422 4038 858 4394 
Q 1294 4750 2059 4750 
Q 2388 4750 2728 4690 
Q 3069 4631 3425 4513 
z
" transform="scale(0.015625)"/>
       <path id="DejaVuSans-45" d="M 628 4666 
L 3578 4666 
L 3578 4134 
L 1259 4134 
L 1259 2753 
L 3481 2753 
L 3481 2222 
L 1259 2222 
L 1259 531 
L 3634 531 
L 3634 0 
L 628 0 
L 628 4666 
z
" transform="scale(0.015625)"/>
      </defs>
      <use xlink:href="#DejaVuSans-65"/>
      <use xlink:href="#DejaVuSans-78" x="59.773438"/>
      <use xlink:href="#DejaVuSans-70" x="118.953125"/>
      <use xlink:href="#DejaVuSans-65" x="182.429688"/>
      <use xlink:href="#DejaVuSans-72" x="243.953125"/>
      <use xlink:href="#DejaVuSans-69" x="285.066406"/>
      <use xlink:href="#DejaVuSans-6d" x="312.849609"/>
      <use xlink:href="#DejaVuSans-65" x="410.261719"/>
      <use xlink:href="#DejaVuSans-6e" x="471.785156"/>
      <use xlink:href="#DejaVuSans-74" x="535.164062"/>
      <use xlink:href="#DejaVuSans-20" x="574.373047"/>
      <use xlink:href="#DejaVuSans-4d" x="606.160156"/>
      <use xlink:href="#DejaVuSans-53" x="692.439453"/>
      <use xlink:href="#DejaVuSans-45" x="755.916016"/>
     </g>
    </g>
   </g>
   <g id="PolyCollection_1">
    <path d="M 92.123828 80.092112 
L 92.123828 86.594791 
L 105.522772 98.451394 
L 115.029474 104.8738 
L 122.403445 104.249003 
L 128.428418 116.113874 
L 133.52246 115.134481 
L 137.93512 128.00508 
L 141.827362 121.09028 
L 145.309091 128.452418 
L 148.458698 123.856044 
L 151.334064 125.763634 
L 153.979144 134.895839 
L 156.428106 128.080709 
L 158.708035 139.299923 
L 160.840766 143.648726 
L 162.844159 161.978212 
L 164.733008 174.815009 
L 166.519706 157.06387 
L 168.214737 153.318911 
L 169.82705 158.778159 
L 171.364344 150.298647 
L 172.833291 175.301264 
L 174.23971 145.911658 
L 175.588708 168.709288 
L 176.88479 154.291845 
L 178.131952 157.990335 
L 179.333752 156.344918 
L 180.493375 146.394097 
L 181.613681 143.019709 
L 182.697249 157.428362 
L 183.746412 154.813313 
L 183.746412 125.086177 
L 183.746412 125.086177 
L 182.697249 124.260226 
L 181.613681 132.362187 
L 180.493375 123.044166 
L 179.333752 147.612439 
L 178.131952 113.676619 
L 176.88479 144.156636 
L 175.588708 133.838729 
L 174.23971 124.915243 
L 172.833291 144.495066 
L 171.364344 143.115886 
L 169.82705 123.412538 
L 168.214737 129.739351 
L 166.519706 115.999437 
L 164.733008 128.965681 
L 162.844159 139.243194 
L 160.840766 110.10683 
L 158.708035 124.341553 
L 156.428106 118.116398 
L 153.979144 118.835338 
L 151.334064 104.391538 
L 148.458698 109.930387 
L 145.309091 106.227399 
L 141.827362 107.136754 
L 137.93512 101.376708 
L 133.52246 98.751131 
L 128.428418 103.639081 
L 122.403445 96.785534 
L 115.029474 92.742169 
L 105.522772 89.526005 
L 92.123828 80.092112 
z
" clip-path="url(#pe256fdc28e)" style="fill: #4c72b0; fill-opacity: 0.2; stroke: #4c72b0; stroke-opacity: 0.2"/>
    <path d="M 185.749805 141.284347 
L 185.749805 148.099176 
L 186.707723 153.356272 
L 186.707723 145.96465 
L 186.707723 145.96465 
L 185.749805 141.284347 
z
" clip-path="url(#pe256fdc28e)" style="fill: #4c72b0; fill-opacity: 0.2; stroke: #4c72b0; stroke-opacity: 0.2"/>
    <path d="M 188.544077 123.631519 
L 188.544077 130.385151 
L 188.544077 123.631519 
L 188.544077 123.631519 
z
" clip-path="url(#pe256fdc28e)" style="fill: #4c72b0; fill-opacity: 0.2; stroke: #4c72b0; stroke-opacity: 0.2"/>
    <path d="M 191.120383 141.730835 
L 191.120383 147.559119 
L 191.120383 141.730835 
L 191.120383 141.730835 
z
" clip-path="url(#pe256fdc28e)" style="fill: #4c72b0; fill-opacity: 0.2; stroke: #4c72b0; stroke-opacity: 0.2"/>
    <path d="M 193.510282 142.728929 
L 193.510282 164.281485 
L 193.510282 142.728929 
L 193.510282 142.728929 
z
" clip-path="url(#pe256fdc28e)" style="fill: #4c72b0; fill-opacity: 0.2; stroke: #4c72b0; stroke-opacity: 0.2"/>
    <path d="M 196.449628 160.380626 
L 196.449628 162.132485 
L 196.449628 160.380626 
L 196.449628 160.380626 
z
" clip-path="url(#pe256fdc28e)" style="fill: #4c72b0; fill-opacity: 0.2; stroke: #4c72b0; stroke-opacity: 0.2"/>
   </g>
   <g id="PolyCollection_2">
    <path d="M 92.123828 125.713613 
L 92.123828 127.577155 
L 105.522772 136.684435 
L 115.029474 144.457727 
L 122.403445 149.491844 
L 128.428418 155.278048 
L 133.52246 152.625971 
L 137.93512 158.101882 
L 141.827362 164.424088 
L 145.309091 172.515236 
L 148.458698 173.486986 
L 151.334064 175.785468 
L 153.979144 175.41698 
L 156.428106 173.22688 
L 158.708035 166.347087 
L 160.840766 178.160832 
L 162.844159 178.549647 
L 164.733008 182.61516 
L 166.519706 185.394657 
L 168.214737 180.875895 
L 169.82705 188.058581 
L 171.364344 189.323077 
L 172.833291 187.508247 
L 174.23971 193.541877 
L 175.588708 181.690405 
L 176.88479 202.06044 
L 178.131952 193.897781 
L 179.333752 181.447855 
L 180.493375 191.219442 
L 181.613681 194.541182 
L 182.697249 187.057453 
L 183.746412 196.774559 
L 183.746412 193.311321 
L 183.746412 193.311321 
L 182.697249 184.06398 
L 181.613681 182.936084 
L 180.493375 182.772428 
L 179.333752 173.684937 
L 178.131952 184.869138 
L 176.88479 190.85163 
L 175.588708 178.036069 
L 174.23971 179.179475 
L 172.833291 181.751461 
L 171.364344 186.10896 
L 169.82705 178.579859 
L 168.214737 171.544155 
L 166.519706 162.100739 
L 164.733008 175.576705 
L 162.844159 165.01761 
L 160.840766 172.418947 
L 158.708035 164.338516 
L 156.428106 165.309977 
L 153.979144 161.186771 
L 151.334064 165.594775 
L 148.458698 159.836859 
L 145.309091 161.842141 
L 141.827362 155.371561 
L 137.93512 147.730964 
L 133.52246 149.161202 
L 128.428418 150.213909 
L 122.403445 143.686226 
L 115.029474 139.23923 
L 105.522772 132.483066 
L 92.123828 125.713613 
z
" clip-path="url(#pe256fdc28e)" style="fill: #dd8452; fill-opacity: 0.2; stroke: #dd8452; stroke-opacity: 0.2"/>
    <path d="M 185.749805 175.961995 
L 185.749805 200.593144 
L 186.707723 186.131679 
L 186.707723 181.950853 
L 186.707723 181.950853 
L 185.749805 175.961995 
z
" clip-path="url(#pe256fdc28e)" style="fill: #dd8452; fill-opacity: 0.2; stroke: #dd8452; stroke-opacity: 0.2"/>
    <path d="M 188.544077 192.124712 
L 188.544077 195.185279 
L 188.544077 192.124712 
L 188.544077 192.124712 
z
" clip-path="url(#pe256fdc28e)" style="fill: #dd8452; fill-opacity: 0.2; stroke: #dd8452; stroke-opacity: 0.2"/>
    <path d="M 191.120383 178.469717 
L 191.120383 190.362156 
L 191.120383 178.469717 
L 191.120383 178.469717 
z
" clip-path="url(#pe256fdc28e)" style="fill: #dd8452; fill-opacity: 0.2; stroke: #dd8452; stroke-opacity: 0.2"/>
    <path d="M 193.510282 194.204346 
L 193.510282 195.175926 
L 193.510282 194.204346 
L 193.510282 194.204346 
z
" clip-path="url(#pe256fdc28e)" style="fill: #dd8452; fill-opacity: 0.2; stroke: #dd8452; stroke-opacity: 0.2"/>
    <path d="M 196.449628 194.378837 
L 196.449628 197.480343 
L 196.449628 194.378837 
L 196.449628 194.378837 
z
" clip-path="url(#pe256fdc28e)" style="fill: #dd8452; fill-opacity: 0.2; stroke: #dd8452; stroke-opacity: 0.2"/>
   </g>
   <g id="PolyCollection_3">
    <path d="M 92.123828 175.452053 
L 92.123828 175.752073 
L 105.522772 184.677601 
L 115.029474 191.821353 
L 122.403445 196.620711 
L 128.428418 200.146111 
L 133.52246 205.051765 
L 137.93512 207.734637 
L 141.827362 211.587802 
L 145.309091 214.1277 
L 148.458698 215.204009 
L 151.334064 217.655546 
L 153.979144 220.364228 
L 156.428106 217.634217 
L 158.708035 223.997638 
L 160.840766 223.149625 
L 162.844159 225.12015 
L 164.733008 228.089292 
L 166.519706 232.429615 
L 168.214737 227.283403 
L 169.82705 233.281331 
L 171.364344 228.077462 
L 172.833291 229.855132 
L 174.23971 232.199713 
L 175.588708 236.954699 
L 176.88479 230.27363 
L 178.131952 226.279674 
L 179.333752 240.343122 
L 180.493375 235.793575 
L 181.613681 239.736738 
L 182.697249 242.440075 
L 183.746412 238.816655 
L 183.746412 237.930135 
L 183.746412 237.930135 
L 182.697249 236.541769 
L 181.613681 231.29946 
L 180.493375 234.871334 
L 179.333752 232.390303 
L 178.131952 225.753474 
L 176.88479 230.052791 
L 175.588708 229.912401 
L 174.23971 225.556603 
L 172.833291 221.447553 
L 171.364344 225.445555 
L 169.82705 226.949451 
L 168.214737 220.37056 
L 166.519706 221.42404 
L 164.733008 219.117196 
L 162.844159 216.365983 
L 160.840766 218.201142 
L 158.708035 209.243115 
L 156.428106 210.398899 
L 153.979144 217.522114 
L 151.334064 213.630334 
L 148.458698 210.69653 
L 145.309091 210.33757 
L 141.827362 208.992899 
L 137.93512 204.100229 
L 133.52246 192.385236 
L 128.428418 195.892413 
L 122.403445 192.967516 
L 115.029474 189.738922 
L 105.522772 182.156734 
L 92.123828 175.452053 
z
" clip-path="url(#pe256fdc28e)" style="fill: #55a868; fill-opacity: 0.2; stroke: #55a868; stroke-opacity: 0.2"/>
    <path d="M 185.749805 233.798896 
L 185.749805 237.865935 
L 186.707723 240.170156 
L 186.707723 237.298167 
L 186.707723 237.298167 
L 185.749805 233.798896 
z
" clip-path="url(#pe256fdc28e)" style="fill: #55a868; fill-opacity: 0.2; stroke: #55a868; stroke-opacity: 0.2"/>
    <path d="M 188.544077 238.468398 
L 188.544077 243.050406 
L 188.544077 238.468398 
L 188.544077 238.468398 
z
" clip-path="url(#pe256fdc28e)" style="fill: #55a868; fill-opacity: 0.2; stroke: #55a868; stroke-opacity: 0.2"/>
    <path d="M 191.120383 237.150899 
L 191.120383 244.298564 
L 191.120383 237.150899 
L 191.120383 237.150899 
z
" clip-path="url(#pe256fdc28e)" style="fill: #55a868; fill-opacity: 0.2; stroke: #55a868; stroke-opacity: 0.2"/>
    <path d="M 193.510282 243.698887 
L 193.510282 243.790206 
L 193.510282 243.698887 
L 193.510282 243.698887 
z
" clip-path="url(#pe256fdc28e)" style="fill: #55a868; fill-opacity: 0.2; stroke: #55a868; stroke-opacity: 0.2"/>
    <path d="M 196.449628 244.972662 
L 196.449628 248.291385 
L 196.449628 244.972662 
L 196.449628 244.972662 
z
" clip-path="url(#pe256fdc28e)" style="fill: #55a868; fill-opacity: 0.2; stroke: #55a868; stroke-opacity: 0.2"/>
   </g>
   <g id="line2d_13">
    <path d="M 69.218182 66.96 
L 92.123828 83.522312 
L 105.522772 94.083253 
L 115.029474 98.778275 
L 122.403445 100.57591 
L 128.428418 109.85176 
L 133.52246 107.048828 
L 137.93512 114.097353 
L 141.827362 113.615282 
L 145.309091 115.740585 
L 148.458698 118.30558 
L 151.334064 116.529898 
L 153.979144 126.865588 
L 156.428106 123.242392 
L 158.708035 131.820738 
L 160.840766 130.129181 
L 162.844159 151.171932 
L 164.733008 146.147116 
L 166.519706 130.589986 
L 168.214737 144.593244 
L 169.82705 143.547204 
L 171.364344 146.707266 
L 172.833291 157.263209 
L 174.23971 135.413451 
L 175.588708 151.274008 
L 176.88479 149.224241 
L 178.131952 135.833477 
L 179.333752 151.978679 
L 180.493375 134.719131 
L 182.697249 140.844294 
L 183.746412 139.949745 
L 184.763288 111.771427 
L 185.749805 144.691761 
L 187.638654 154.873368 
L 188.544077 127.008335 
L 189.425352 157.140378 
L 190.283734 158.797675 
L 191.120383 144.644977 
L 191.936372 165.80155 
L 192.732696 145.290351 
L 193.510282 153.505207 
L 194.26999 137.617177 
L 195.012625 169.269983 
L 195.738937 138.922112 
L 196.449628 161.256556 
L 197.145356 153.091061 
L 197.826738 149.694115 
L 198.494354 157.946705 
L 199.148749 147.662762 
L 199.790436 150.908204 
L 200.4199 133.996689 
L 201.037598 157.322445 
L 201.643961 145.819103 
L 202.239398 143.729746 
L 202.824296 145.049207 
L 203.399021 172.05551 
L 203.963921 159.238784 
L 204.519327 179.291029 
L 205.065552 182.026656 
L 205.602895 140.477307 
L 206.652058 161.265426 
L 207.164407 153.699998 
L 207.668934 160.049432 
L 208.165874 171.389503 
L 208.655451 143.681012 
L 209.613369 176.701408 
L 210.082113 206.331728 
L 210.5443 175.177645 
L 211.449723 168.023657 
L 211.893298 143.816284 
L 212.330998 158.463413 
L 213.18938 154.073403 
L 213.610352 161.870466 
L 214.436542 140.749794 
L 214.842018 161.669906 
L 215.638342 169.183499 
L 216.029422 159.504295 
L 216.797965 166.028703 
L 217.175636 160.419459 
L 217.918271 139.837325 
L 218.644583 149.591615 
L 219.001839 184.033383 
L 219.704969 195.052744 
L 221.067878 159.21223 
L 221.4 175.477213 
L 222.054395 185.607723 
L 222.696082 144.849361 
L 223.325546 186.785835 
L 223.943244 164.281699 
L 224.549607 153.529397 
L 225.145044 182.33992 
L 225.729942 186.696951 
L 226.304667 168.182847 
L 227.148437 184.326031 
L 227.699214 188.860516 
L 228.773971 173.212577 
L 229.557704 184.194164 
L 230.070053 173.946791 
L 230.57458 193.94446 
L 231.317215 169.951784 
L 231.803192 185.298809 
L 232.519015 187.726986 
L 232.987759 157.771801 
L 233.678638 177.019401 
L 234.355369 171.457757 
L 234.798944 201.230269 
L 235.453339 187.257873 
L 236.095026 163.97484 
L 236.72449 156.258292 
L 237.342188 230.189513 
L 237.948551 174.803709 
L 238.543988 161.342676 
L 239.128886 177.258392 
L 239.703611 165.532281 
L 240.454686 203.088229 
L 241.006997 174.027249 
L 242.26092 209.630508 
L 242.784084 191.963387 
L 243.468997 178.496825 
L 243.973524 212.342903 
L 244.634463 185.933412 
L 245.282442 181.566307 
L 245.760222 184.109455 
L 246.386703 180.002496 
L 247.605121 209.148437 
L 248.9242 181.388715 
L 249.49397 185.654009 
L 250.054083 205.653487 
L 250.741132 213.627226 
L 251.280668 196.841084 
L 251.942932 185.239255 
L 252.46335 183.505818 
L 253.102555 167.087693 
L 253.72963 178.852009 
L 254.345027 196.006001 
L 254.949173 189.836792 
L 255.542472 176.893854 
L 256.125306 201.033792 
L 256.811404 178.491242 
L 257.372468 210.087887 
L 257.924165 205.465853 
L 258.574268 192.804638 
L 259.211829 203.443654 
L 259.837321 231.702092 
L 260.451194 194.836302 
L 261.053871 180.5921 
L 262.22722 214.387998 
L 262.798632 197.245639 
L 263.453027 191.521992 
L 264.094714 189.065665 
L 264.634986 194.461982 
L 265.254337 228.237758 
L 265.862294 217.291914 
L 266.459268 190.063377 
L 267.128574 200.429401 
L 267.703299 198.750615 
L 268.348117 183.692175 
L 268.902192 213.663712 
L 269.52425 181.61282 
L 270.134815 195.945841 
L 270.734303 212.742882 
L 271.323109 196.061176 
L 271.973212 206.696372 
L 272.540537 205.529946 
L 273.167348 200.058373 
L 273.78249 204.815051 
L 274.386391 183.313079 
L 274.979453 202.422868 
L 275.626164 198.121398 
L 276.197576 208.517905 
L 276.821101 203.764521 
L 277.433079 212.872367 
L 278.03393 218.193981 
L 279.261238 184.273736 
L 279.886372 201.977366 
L 280.499899 231.933053 
L 281.102243 199.164907 
L 281.693804 194.967895 
L 282.274961 217.227953 
L 282.897508 198.845305 
L 283.508543 206.772178 
L 284.108484 207.451639 
L 284.74636 199.691828 
L 285.324436 231.556387 
L 285.939481 240.45268 
L 286.543287 213.439057 
L 287.181434 193.057606 
L 287.763164 214.190513 
L 288.378397 202.13755 
L 288.982385 222.222931 
L 289.617495 196.572556 
L 290.19945 226.812973 
L 290.811806 195.81647 
L 291.41302 225.700445 
L 292.042484 221.201492 
L 292.621912 211.803301 
L 293.266545 203.684528 
L 293.861982 203.240004 
L 294.483095 229.559513 
L 295.057196 241.101471 
L 295.691357 210.845303 
L 296.279316 188.580835 
L 296.890665 229.330671 
L 297.490909 254.046483 
L 298.11289 216.43826 
L 298.72338 268.671133 
L 299.322797 229.409223 
L 299.942231 230.621364 
L 300.550268 211.786817 
L 301.147319 212.789475 
L 301.762825 234.389481 
L 302.367076 232.007737 
L 302.988469 220.911103 
L 303.598394 223.179845 
L 304.197264 252.143245 
L 305.415439 216.650124 
L 306.033618 229.187479 
L 306.640445 214.82725 
L 307.236329 218.752439 
L 307.845824 241.227763 
L 308.467995 201.377201 
L 309.078668 223.66664 
L 309.67826 220.79608 
L 310.289609 210.914016 
L 310.889853 234.201742 
L 312.101094 241.564992 
L 312.711318 214.43224 
L 313.330946 212.3473 
L 314.5364 206.415291 
L 315.161769 239.946019 
L 315.756514 227.036312 
L 316.378085 229.052152 
L 316.98818 225.336283 
L 317.587215 227.955725 
L 318.193251 258.030993 
L 318.805715 226.136713 
L 319.407034 240.728379 
L 320.014326 237.312889 
L 320.62707 211.842191 
L 321.244768 209.249812 
L 321.851131 267.544718 
L 322.462094 247.822464 
L 323.061965 238.822539 
L 323.681074 245.096397 
L 324.288797 248.892951 
L 324.885545 212.608137 
L 325.500038 227.228556 
L 326.103311 227.970202 
L 326.723069 244.505173 
L 327.331416 253.232367 
L 327.928767 232.522383 
L 328.541348 239.281521 
L 329.155458 235.110748 
L 329.758364 261.779129 
L 330.362691 224.899296 
L 330.980162 282.389389 
L 331.586307 237.322975 
L 332.193098 236.496584 
L 332.800302 227.562133 
L 333.407697 242.992665 
L 334.015074 244.861593 
L 334.632974 229.695546 
L 335.239532 279.23128 
L 335.845512 229.797688 
L 336.450746 223.828066 
L 337.065055 248.272787 
L 337.668153 258.03623 
L 338.279681 250.089915 
L 338.889541 247.113001 
L 339.497621 242.578097 
L 340.103815 257.778272 
L 340.716962 233.63874 
L 341.327711 248.697028 
L 341.935987 267.786171 
L 342.541724 231.000085 
L 343.153159 253.638127 
L 343.761635 243.317704 
L 344.367109 241.696003 
L 344.977399 242.41617 
L 345.584333 273.788764 
L 346.195462 272.244193 
L 346.802926 272.097822 
L 347.406722 266.668269 
L 348.021177 246.696912 
L 348.624414 236.876767 
L 349.237554 255.895114 
L 349.846301 256.6029 
L 350.450693 234.911305 
L 351.063831 246.727833 
L 351.672213 248.47154 
L 352.28219 251.979011 
L 352.887294 257.352199 
L 353.499726 237.518305 
L 354.106971 237.815916 
L 354.714959 261.569854 
L 355.323449 259.893519 
L 355.932213 271.320878 
L 356.541036 256.297386 
L 357.149714 258.768805 
L 357.758052 255.46163 
L 358.36587 263.621344 
L 358.972995 253.751596 
L 359.584313 266.519118 
L 360.194438 293.108356 
L 360.803234 259.565369 
L 361.41057 291.291535 
L 362.016325 253.689152 
L 362.62499 251.987038 
L 363.236208 242.715422 
L 363.8452 272.4114 
L 364.451886 268.11404 
L 365.060467 261.052399 
L 365.67064 268.700943 
L 366.277995 258.79932 
L 366.886532 267.979738 
L 367.495985 259.143735 
L 368.106104 262.24373 
L 368.712821 261.069878 
L 369.32364 281.478268 
L 369.930755 293.862533 
L 370.541412 265.255295 
L 371.148105 284.777825 
L 371.757831 291.84515 
L 372.366797 277.591649 
L 372.974843 252.482836 
L 373.581818 262.55929 
L 373.581818 262.55929 
" clip-path="url(#pe256fdc28e)" style="fill: none; stroke: #4c72b0; stroke-width: 1.5; stroke-linecap: round"/>
   </g>
   <g id="line2d_14">
    <path d="M 69.218182 109.311283 
L 92.123828 126.874351 
L 105.522772 134.669095 
L 115.029474 141.86729 
L 122.403445 146.65441 
L 128.428418 152.794142 
L 133.52246 150.916791 
L 137.93512 153.922613 
L 141.827362 159.53189 
L 145.309091 167.291912 
L 148.458698 166.782655 
L 151.334064 171.32879 
L 153.979144 168.864299 
L 156.428106 169.19291 
L 158.708035 165.342802 
L 160.840766 175.795506 
L 162.844159 172.42599 
L 164.733008 178.278835 
L 166.519706 172.114216 
L 168.214737 176.355064 
L 171.364344 187.716019 
L 172.833291 184.751797 
L 174.23971 186.360676 
L 175.588708 179.863237 
L 176.88479 196.456035 
L 178.131952 189.383459 
L 179.333752 177.566396 
L 180.493375 186.995935 
L 181.613681 188.738633 
L 182.697249 185.560717 
L 183.746412 195.04294 
L 184.763288 187.950126 
L 185.749805 188.27757 
L 186.707723 184.041266 
L 187.638654 189.533136 
L 188.544077 193.654995 
L 189.425352 200.841666 
L 190.283734 200.09221 
L 191.120383 184.415937 
L 191.936372 195.57863 
L 192.732696 191.262771 
L 193.510282 194.690136 
L 194.26999 180.642788 
L 195.012625 188.462547 
L 195.738937 202.878077 
L 196.449628 195.92959 
L 197.145356 204.302509 
L 198.494354 188.799173 
L 199.148749 191.504728 
L 199.790436 198.582233 
L 200.4199 188.630496 
L 201.037598 195.67733 
L 201.643961 194.410057 
L 202.239398 194.130283 
L 202.824296 201.385264 
L 203.399021 188.48243 
L 203.963921 211.85987 
L 204.519327 197.392687 
L 205.065552 186.581065 
L 205.602895 204.428786 
L 206.652058 201.447689 
L 207.164407 201.473461 
L 207.668934 210.825563 
L 208.165874 206.239504 
L 208.655451 199.073477 
L 209.613369 204.882807 
L 210.082113 188.997761 
L 210.5443 203.790495 
L 211.449723 194.597111 
L 211.893298 215.387043 
L 212.330998 203.085377 
L 213.18938 206.087763 
L 213.610352 206.898953 
L 214.436542 204.242938 
L 214.842018 199.325026 
L 215.638342 207.147849 
L 216.029422 212.133233 
L 216.797965 206.779179 
L 217.175636 212.711724 
L 217.918271 205.90113 
L 218.644583 214.097998 
L 219.001839 198.321565 
L 219.704969 211.476331 
L 220.393449 214.188683 
L 221.067878 210.229589 
L 221.4 214.097922 
L 222.054395 213.255706 
L 222.696082 209.336687 
L 223.325546 207.915858 
L 223.943244 196.706593 
L 224.549607 204.316862 
L 225.145044 209.546187 
L 225.729942 212.119386 
L 226.304667 220.042141 
L 227.148437 210.320843 
L 227.699214 218.346344 
L 228.240962 215.420147 
L 228.773971 230.206818 
L 229.557704 221.116741 
L 230.070053 217.323629 
L 230.57458 223.122539 
L 231.317215 209.218461 
L 231.803192 211.504545 
L 232.519015 219.179627 
L 232.987759 219.115331 
L 233.678638 239.26855 
L 234.355369 221.46524 
L 234.798944 215.847347 
L 235.453339 218.079665 
L 236.095026 227.141739 
L 236.72449 238.600908 
L 237.342188 217.348517 
L 237.948551 224.401088 
L 238.543988 219.547424 
L 239.128886 225.997758 
L 239.703611 233.87643 
L 240.454686 226.028117 
L 241.006997 225.402835 
L 241.550229 233.742112 
L 242.26092 212.420565 
L 242.784084 231.638886 
L 243.468997 224.065074 
L 243.973524 229.775047 
L 244.634463 218.929717 
L 245.282442 229.26244 
L 245.760222 232.903752 
L 246.386703 225.183981 
L 247.001527 242.14103 
L 247.605121 228.606876 
L 248.197888 236.867816 
L 248.9242 231.009371 
L 249.49397 231.295678 
L 250.054083 233.235824 
L 250.741132 233.617053 
L 251.280668 227.295679 
L 251.942932 247.602717 
L 252.46335 232.250481 
L 253.102555 227.092565 
L 253.72963 228.55677 
L 254.345027 219.12068 
L 254.949173 228.63357 
L 255.542472 226.983314 
L 256.125306 230.545293 
L 256.811404 228.235215 
L 257.372468 224.793845 
L 257.924165 238.154595 
L 258.574268 232.043298 
L 259.211829 242.399768 
L 259.837321 238.883926 
L 260.451194 250.481773 
L 261.053871 230.634899 
L 261.645753 248.373074 
L 262.22722 229.815997 
L 262.798632 249.268164 
L 263.453027 245.984102 
L 264.094714 253.090391 
L 264.634986 246.000739 
L 265.254337 242.148411 
L 265.862294 240.35362 
L 266.459268 237.259853 
L 267.128574 261.325328 
L 267.703299 246.573822 
L 268.348117 243.060821 
L 268.902192 248.120798 
L 269.52425 248.044764 
L 270.134815 242.879514 
L 270.734303 239.190295 
L 271.323109 238.164706 
L 271.973212 259.675815 
L 272.540537 248.502178 
L 273.167348 261.071143 
L 273.78249 248.31695 
L 274.386391 242.180452 
L 274.979453 242.670086 
L 275.626164 241.701204 
L 276.197576 233.029748 
L 276.821101 235.800566 
L 277.433079 241.601021 
L 278.03393 253.306047 
L 279.261238 242.435224 
L 279.886372 249.718535 
L 280.499899 244.688195 
L 281.102243 232.841595 
L 281.693804 253.214709 
L 282.274961 250.825273 
L 282.897508 261.616534 
L 283.508543 259.853111 
L 284.108484 249.698455 
L 284.74636 251.176306 
L 285.324436 245.971416 
L 285.939481 241.940557 
L 286.543287 257.632668 
L 287.181434 260.736828 
L 287.763164 258.403406 
L 288.378397 260.559627 
L 288.982385 274.396898 
L 289.617495 247.359751 
L 290.19945 251.204279 
L 290.811806 257.812858 
L 291.41302 263.008421 
L 292.042484 275.11658 
L 292.621912 258.177345 
L 293.266545 250.040522 
L 293.861982 262.160152 
L 294.483095 255.50151 
L 295.057196 260.189081 
L 295.691357 262.552348 
L 296.279316 249.355789 
L 296.890665 269.327305 
L 297.490909 270.487361 
L 298.11289 264.931665 
L 298.72338 273.154013 
L 299.322797 261.783523 
L 299.942231 269.562543 
L 300.550268 274.607428 
L 301.147319 261.562542 
L 301.762825 275.419641 
L 302.367076 272.497021 
L 302.988469 262.77889 
L 303.598394 278.608159 
L 304.197264 267.696543 
L 304.811964 259.280658 
L 305.415439 266.35865 
L 306.033618 267.232891 
L 306.640445 274.002252 
L 307.236329 266.090677 
L 307.845824 281.907442 
L 308.467995 278.77999 
L 309.078668 277.059234 
L 309.67826 266.378012 
L 310.289609 272.862837 
L 310.889853 268.866781 
L 311.501022 274.28985 
L 312.101094 264.014454 
L 312.711318 279.945316 
L 313.330946 279.042804 
L 313.939169 269.636325 
L 314.5364 267.248835 
L 315.161769 259.094856 
L 315.756514 276.841485 
L 316.378085 274.789025 
L 316.98818 281.646943 
L 317.587215 272.119619 
L 318.193251 284.117839 
L 318.805715 274.413185 
L 320.014326 282.127089 
L 320.62707 276.859557 
L 321.244768 279.330289 
L 321.851131 288.372154 
L 322.462094 278.783599 
L 323.061965 287.954279 
L 323.681074 278.711954 
L 324.288797 283.209226 
L 324.885545 275.803132 
L 325.500038 296.369601 
L 326.103311 289.108274 
L 326.723069 285.599895 
L 327.331416 283.169456 
L 327.928767 274.231159 
L 328.541348 279.413473 
L 329.155458 297.227379 
L 330.362691 276.945031 
L 330.980162 278.380507 
L 331.586307 288.975194 
L 332.193098 280.595203 
L 332.800302 282.7359 
L 333.407697 282.027388 
L 334.015074 282.032052 
L 334.632974 280.790978 
L 335.239532 282.43663 
L 335.845512 290.971274 
L 336.450746 297.266504 
L 337.065055 290.919577 
L 337.668153 291.095318 
L 338.279681 274.888416 
L 338.889541 288.30218 
L 339.497621 291.439662 
L 340.103815 287.689106 
L 340.716962 286.528361 
L 341.327711 300.94713 
L 341.935987 300.015836 
L 342.541724 292.578436 
L 343.153159 283.02582 
L 343.761635 305.573193 
L 344.367109 292.240489 
L 344.977399 301.56002 
L 345.584333 292.336087 
L 346.195462 290.966026 
L 346.802926 287.362504 
L 347.406722 307.016481 
L 348.021177 308.356906 
L 348.624414 286.764188 
L 349.237554 293.426796 
L 349.846301 305.266824 
L 350.450693 312.107929 
L 351.063831 307.198946 
L 351.672213 291.21478 
L 352.28219 280.307749 
L 352.887294 297.286531 
L 353.499726 308.023305 
L 354.106971 292.690342 
L 354.714959 291.759349 
L 355.323449 301.129884 
L 355.932213 289.79706 
L 356.541036 309.359131 
L 357.149714 312.805351 
L 357.758052 302.240789 
L 358.972995 299.80561 
L 359.584313 296.497671 
L 360.194438 295.425314 
L 360.803234 310.87301 
L 361.41057 303.620241 
L 362.016325 303.486876 
L 362.62499 306.24627 
L 363.236208 295.276699 
L 363.8452 304.038432 
L 364.451886 308.408341 
L 365.060467 304.649224 
L 365.67064 308.691962 
L 366.277995 309.264962 
L 366.886532 302.329533 
L 367.495985 304.792657 
L 368.106104 298.273241 
L 368.712821 309.46821 
L 369.32364 315.248641 
L 369.930755 310.176934 
L 370.541412 315.531972 
L 371.148105 319.02499 
L 371.757831 302.514005 
L 372.366797 312.450081 
L 373.581818 316.419584 
L 373.581818 316.419584 
" clip-path="url(#pe256fdc28e)" style="fill: none; stroke: #dd8452; stroke-width: 1.5; stroke-linecap: round"/>
   </g>
   <g id="line2d_15">
    <path d="M 69.218182 160.308847 
L 92.123828 175.609443 
L 105.522772 183.563873 
L 115.029474 191.027603 
L 128.428418 198.136005 
L 133.52246 198.895486 
L 137.93512 205.971222 
L 141.827362 210.507858 
L 145.309091 212.337411 
L 148.458698 212.950269 
L 151.334064 215.450554 
L 153.979144 219.004015 
L 156.428106 214.120084 
L 158.708035 216.620377 
L 160.840766 220.283221 
L 162.844159 220.071089 
L 164.733008 224.546401 
L 166.519706 226.44472 
L 168.214737 224.425945 
L 169.82705 229.32222 
L 171.364344 226.761508 
L 172.833291 225.346061 
L 174.23971 228.878158 
L 175.588708 233.43355 
L 176.88479 230.16321 
L 178.131952 226.016574 
L 179.333752 236.366713 
L 180.493375 235.332455 
L 181.613681 235.518099 
L 182.697249 239.490922 
L 183.746412 238.373395 
L 184.763288 238.100322 
L 185.749805 235.832415 
L 186.707723 238.734162 
L 187.638654 234.70208 
L 188.544077 240.759402 
L 189.425352 243.317062 
L 190.283734 238.528047 
L 191.120383 240.724731 
L 191.936372 239.33332 
L 192.732696 246.806647 
L 193.510282 243.744547 
L 194.26999 248.915169 
L 195.012625 242.33293 
L 195.738937 244.934873 
L 196.449628 246.632023 
L 197.826738 242.293875 
L 199.148749 247.751159 
L 199.790436 249.017914 
L 200.4199 247.116484 
L 201.037598 244.760211 
L 201.643961 251.210825 
L 202.239398 249.865421 
L 202.824296 250.95918 
L 203.399021 242.727458 
L 203.963921 252.304147 
L 204.519327 247.29463 
L 205.065552 254.835598 
L 205.602895 249.857863 
L 206.652058 259.573923 
L 207.164407 247.04566 
L 207.668934 248.573124 
L 208.165874 252.306435 
L 208.655451 250.078414 
L 209.613369 259.47119 
L 210.082113 253.499932 
L 211.449723 249.670277 
L 211.893298 251.197083 
L 212.330998 252.064518 
L 213.18938 253.058756 
L 213.610352 256.135088 
L 214.436542 263.578902 
L 214.842018 251.612618 
L 215.638342 260.413544 
L 216.029422 261.232826 
L 216.797965 259.148365 
L 217.175636 259.23932 
L 217.918271 259.860508 
L 218.644583 265.905353 
L 219.001839 252.194777 
L 219.704969 267.271389 
L 220.393449 265.654763 
L 221.067878 262.279331 
L 221.4 253.83505 
L 222.054395 265.605541 
L 222.696082 265.690726 
L 223.325546 261.053681 
L 223.943244 264.44356 
L 224.549607 262.685653 
L 225.145044 267.234012 
L 225.729942 270.674608 
L 226.304667 267.271593 
L 227.148437 275.382689 
L 227.699214 265.187298 
L 228.240962 266.04072 
L 228.773971 272.43648 
L 230.070053 259.605422 
L 230.57458 273.283583 
L 231.317215 263.55602 
L 231.803192 265.289961 
L 232.519015 272.002359 
L 232.987759 271.226378 
L 233.678638 273.868533 
L 234.355369 259.788358 
L 234.798944 273.639201 
L 235.453339 265.804841 
L 236.095026 269.544806 
L 236.72449 275.389318 
L 237.342188 273.524334 
L 237.948551 265.106109 
L 238.543988 277.421878 
L 239.128886 269.447553 
L 239.703611 272.308578 
L 240.454686 283.89289 
L 241.006997 280.729836 
L 241.550229 272.095137 
L 242.26092 272.698332 
L 242.784084 281.204494 
L 243.468997 276.625769 
L 243.973524 276.027016 
L 244.634463 283.032644 
L 245.282442 276.556004 
L 245.760222 279.743006 
L 246.386703 278.665904 
L 247.001527 275.033074 
L 247.605121 280.094871 
L 248.197888 283.263488 
L 248.9242 278.020995 
L 249.49397 279.238755 
L 250.054083 284.819604 
L 250.741132 281.193472 
L 251.280668 280.305331 
L 251.942932 283.874119 
L 252.46335 286.042643 
L 253.102555 281.453397 
L 253.72963 282.250597 
L 254.345027 284.211644 
L 254.949173 285.503852 
L 255.542472 278.629944 
L 256.125306 290.645136 
L 256.811404 284.497635 
L 257.372468 285.172673 
L 257.924165 289.518988 
L 258.574268 283.161715 
L 259.211829 282.353577 
L 259.837321 292.078464 
L 260.451194 286.815723 
L 261.053871 290.835439 
L 261.645753 284.150221 
L 262.22722 293.250917 
L 262.798632 292.135528 
L 263.453027 285.30713 
L 264.094714 291.544232 
L 264.634986 288.656083 
L 265.254337 293.754711 
L 265.862294 289.935988 
L 266.459268 290.743288 
L 267.128574 287.925471 
L 267.703299 294.55114 
L 268.348117 298.87334 
L 268.902192 289.513686 
L 269.52425 299.157482 
L 270.134815 289.141297 
L 270.734303 294.857148 
L 271.323109 295.945433 
L 271.973212 296.208221 
L 272.540537 287.595569 
L 273.167348 297.310002 
L 273.78249 294.948264 
L 274.386391 296.414435 
L 274.979453 301.57027 
L 275.626164 303.108537 
L 276.197576 299.723345 
L 276.821101 300.494078 
L 277.433079 296.206919 
L 278.03393 297.511833 
L 278.62405 293.986901 
L 279.261238 297.313253 
L 279.886372 301.285925 
L 280.499899 300.639686 
L 281.102243 299.817996 
L 281.693804 300.031308 
L 282.274961 301.002984 
L 282.897508 304.08137 
L 283.508543 304.255996 
L 284.108484 300.466299 
L 284.74636 300.019898 
L 285.324436 300.652947 
L 285.939481 308.137465 
L 286.543287 307.127384 
L 287.181434 299.047819 
L 287.763164 302.53936 
L 288.378397 303.965242 
L 288.982385 312.130617 
L 289.617495 313.634446 
L 290.19945 312.73322 
L 290.811806 304.875694 
L 291.41302 307.065531 
L 292.042484 314.43272 
L 293.266545 303.802328 
L 293.861982 309.6399 
L 294.483095 310.558598 
L 295.057196 304.390437 
L 295.691357 310.369198 
L 296.279316 312.046121 
L 296.890665 313.205054 
L 297.490909 305.320481 
L 298.11289 310.225013 
L 298.72338 303.765187 
L 299.322797 315.916727 
L 299.942231 320.439824 
L 300.550268 312.49455 
L 301.147319 313.375062 
L 301.762825 302.241753 
L 302.367076 314.033011 
L 302.988469 318.551261 
L 303.598394 317.926345 
L 304.197264 315.396168 
L 304.811964 311.098371 
L 305.415439 318.195454 
L 306.033618 316.112967 
L 306.640445 312.415519 
L 307.236329 315.446915 
L 307.845824 320.924212 
L 308.467995 321.939575 
L 309.078668 325.530666 
L 309.67826 315.685773 
L 310.289609 328.510421 
L 310.889853 318.911209 
L 311.501022 325.554395 
L 312.101094 326.602951 
L 312.711318 318.067157 
L 313.330946 320.42921 
L 313.939169 324.442628 
L 314.5364 322.062029 
L 315.161769 316.59641 
L 315.756514 329.02173 
L 316.378085 323.110373 
L 316.98818 315.720744 
L 317.587215 329.607439 
L 318.193251 328.405185 
L 318.805715 321.055119 
L 319.407034 325.652089 
L 320.014326 324.674218 
L 320.62707 335.031402 
L 321.244768 319.854632 
L 321.851131 321.14503 
L 322.462094 321.092388 
L 323.061965 326.74808 
L 323.681074 328.783598 
L 324.288797 329.766055 
L 324.885545 322.965079 
L 325.500038 337.798843 
L 326.103311 333.386284 
L 326.723069 330.373316 
L 327.331416 330.61352 
L 327.928767 333.41081 
L 328.541348 330.065465 
L 329.155458 332.066158 
L 329.758364 329.766318 
L 330.362691 336.165959 
L 330.980162 334.971179 
L 331.586307 329.543203 
L 332.193098 334.418169 
L 332.800302 346.840407 
L 333.407697 326.36011 
L 334.015074 345.028953 
L 334.632974 334.795254 
L 335.239532 334.702539 
L 335.845512 337.370582 
L 336.450746 339.229017 
L 337.065055 331.999 
L 337.668153 335.681051 
L 338.279681 332.289966 
L 338.889541 329.771765 
L 339.497621 337.766589 
L 340.103815 336.437928 
L 340.716962 329.316639 
L 341.327711 336.257258 
L 341.935987 338.256877 
L 342.541724 346.946158 
L 343.153159 338.40371 
L 343.761635 344.321077 
L 344.367109 343.833464 
L 344.977399 339.358202 
L 346.802926 349.486977 
L 347.406722 349.701913 
L 348.021177 345.53306 
L 348.624414 343.973593 
L 349.237554 343.733829 
L 349.846301 340.648966 
L 350.450693 344.985307 
L 351.063831 346.534284 
L 351.672213 356.257204 
L 352.28219 343.0863 
L 352.887294 350.33193 
L 353.499726 349.034329 
L 354.106971 347.208621 
L 354.714959 349.9849 
L 355.323449 346.809812 
L 355.932213 346.223036 
L 356.541036 346.763028 
L 357.149714 356.176523 
L 357.758052 352.444939 
L 358.36587 347.539861 
L 358.972995 346.254589 
L 359.584313 350.900633 
L 360.194438 345.720893 
L 360.803234 357.14436 
L 361.41057 347.778386 
L 362.016325 359.043273 
L 362.62499 353.076919 
L 363.236208 344.971694 
L 363.8452 366.366754 
L 364.451886 350.578882 
L 365.060467 350.372519 
L 365.67064 360.292453 
L 366.277995 353.049537 
L 366.886532 352.574033 
L 367.495985 360.090615 
L 368.106104 355.021208 
L 369.32364 362.974075 
L 369.930755 362.883727 
L 370.541412 360.982057 
L 371.148105 364.04079 
L 371.757831 362.438645 
L 372.366797 357.459866 
L 372.974843 357.847613 
L 373.581818 369.36 
L 373.581818 369.36 
" clip-path="url(#pe256fdc28e)" style="fill: none; stroke: #55a868; stroke-width: 1.5; stroke-linecap: round"/>
   </g>
   <g id="patch_3">
    <path d="M 54 384.48 
L 54 51.84 
" style="fill: none; stroke: #ffffff; stroke-width: 1.25; stroke-linejoin: miter; stroke-linecap: square"/>
   </g>
   <g id="patch_4">
    <path d="M 388.8 384.48 
L 388.8 51.84 
" style="fill: none; stroke: #ffffff; stroke-width: 1.25; stroke-linejoin: miter; stroke-linecap: square"/>
   </g>
   <g id="patch_5">
    <path d="M 54 384.48 
L 388.8 384.48 
" style="fill: none; stroke: #ffffff; stroke-width: 1.25; stroke-linejoin: miter; stroke-linecap: square"/>
   </g>
   <g id="patch_6">
    <path d="M 54 51.84 
L 388.8 51.84 
" style="fill: none; stroke: #ffffff; stroke-width: 1.25; stroke-linejoin: miter; stroke-linecap: square"/>
   </g>
   <g id="text_15">
    <!-- Experiment MSE plot (experimental vs expected) -->
    <g style="fill: #262626" transform="translate(73.964063 45.84) scale(0.12 -0.12)">
     <defs>
      <path id="DejaVuSans-6c" d="M 603 4863 
L 1178 4863 
L 1178 0 
L 603 0 
L 603 4863 
z
" transform="scale(0.015625)"/>
      <path id="DejaVuSans-6f" d="M 1959 3097 
Q 1497 3097 1228 2736 
Q 959 2375 959 1747 
Q 959 1119 1226 758 
Q 1494 397 1959 397 
Q 2419 397 2687 759 
Q 2956 1122 2956 1747 
Q 2956 2369 2687 2733 
Q 2419 3097 1959 3097 
z
M 1959 3584 
Q 2709 3584 3137 3096 
Q 3566 2609 3566 1747 
Q 3566 888 3137 398 
Q 2709 -91 1959 -91 
Q 1206 -91 779 398 
Q 353 888 353 1747 
Q 353 2609 779 3096 
Q 1206 3584 1959 3584 
z
" transform="scale(0.015625)"/>
      <path id="DejaVuSans-28" d="M 1984 4856 
Q 1566 4138 1362 3434 
Q 1159 2731 1159 2009 
Q 1159 1288 1364 580 
Q 1569 -128 1984 -844 
L 1484 -844 
Q 1016 -109 783 600 
Q 550 1309 550 2009 
Q 550 2706 781 3412 
Q 1013 4119 1484 4856 
L 1984 4856 
z
" transform="scale(0.015625)"/>
      <path id="DejaVuSans-61" d="M 2194 1759 
Q 1497 1759 1228 1600 
Q 959 1441 959 1056 
Q 959 750 1161 570 
Q 1363 391 1709 391 
Q 2188 391 2477 730 
Q 2766 1069 2766 1631 
L 2766 1759 
L 2194 1759 
z
M 3341 1997 
L 3341 0 
L 2766 0 
L 2766 531 
Q 2569 213 2275 61 
Q 1981 -91 1556 -91 
Q 1019 -91 701 211 
Q 384 513 384 1019 
Q 384 1609 779 1909 
Q 1175 2209 1959 2209 
L 2766 2209 
L 2766 2266 
Q 2766 2663 2505 2880 
Q 2244 3097 1772 3097 
Q 1472 3097 1187 3025 
Q 903 2953 641 2809 
L 641 3341 
Q 956 3463 1253 3523 
Q 1550 3584 1831 3584 
Q 2591 3584 2966 3190 
Q 3341 2797 3341 1997 
z
" transform="scale(0.015625)"/>
      <path id="DejaVuSans-76" d="M 191 3500 
L 800 3500 
L 1894 563 
L 2988 3500 
L 3597 3500 
L 2284 0 
L 1503 0 
L 191 3500 
z
" transform="scale(0.015625)"/>
      <path id="DejaVuSans-73" d="M 2834 3397 
L 2834 2853 
Q 2591 2978 2328 3040 
Q 2066 3103 1784 3103 
Q 1356 3103 1142 2972 
Q 928 2841 928 2578 
Q 928 2378 1081 2264 
Q 1234 2150 1697 2047 
L 1894 2003 
Q 2506 1872 2764 1633 
Q 3022 1394 3022 966 
Q 3022 478 2636 193 
Q 2250 -91 1575 -91 
Q 1294 -91 989 -36 
Q 684 19 347 128 
L 347 722 
Q 666 556 975 473 
Q 1284 391 1588 391 
Q 1994 391 2212 530 
Q 2431 669 2431 922 
Q 2431 1156 2273 1281 
Q 2116 1406 1581 1522 
L 1381 1569 
Q 847 1681 609 1914 
Q 372 2147 372 2553 
Q 372 3047 722 3315 
Q 1072 3584 1716 3584 
Q 2034 3584 2315 3537 
Q 2597 3491 2834 3397 
z
" transform="scale(0.015625)"/>
      <path id="DejaVuSans-63" d="M 3122 3366 
L 3122 2828 
Q 2878 2963 2633 3030 
Q 2388 3097 2138 3097 
Q 1578 3097 1268 2742 
Q 959 2388 959 1747 
Q 959 1106 1268 751 
Q 1578 397 2138 397 
Q 2388 397 2633 464 
Q 2878 531 3122 666 
L 3122 134 
Q 2881 22 2623 -34 
Q 2366 -91 2075 -91 
Q 1284 -91 818 406 
Q 353 903 353 1747 
Q 353 2603 823 3093 
Q 1294 3584 2113 3584 
Q 2378 3584 2631 3529 
Q 2884 3475 3122 3366 
z
" transform="scale(0.015625)"/>
      <path id="DejaVuSans-64" d="M 2906 2969 
L 2906 4863 
L 3481 4863 
L 3481 0 
L 2906 0 
L 2906 525 
Q 2725 213 2448 61 
Q 2172 -91 1784 -91 
Q 1150 -91 751 415 
Q 353 922 353 1747 
Q 353 2572 751 3078 
Q 1150 3584 1784 3584 
Q 2172 3584 2448 3432 
Q 2725 3281 2906 2969 
z
M 947 1747 
Q 947 1113 1208 752 
Q 1469 391 1925 391 
Q 2381 391 2643 752 
Q 2906 1113 2906 1747 
Q 2906 2381 2643 2742 
Q 2381 3103 1925 3103 
Q 1469 3103 1208 2742 
Q 947 2381 947 1747 
z
" transform="scale(0.015625)"/>
      <path id="DejaVuSans-29" d="M 513 4856 
L 1013 4856 
Q 1481 4119 1714 3412 
Q 1947 2706 1947 2009 
Q 1947 1309 1714 600 
Q 1481 -109 1013 -844 
L 513 -844 
Q 928 -128 1133 580 
Q 1338 1288 1338 2009 
Q 1338 2731 1133 3434 
Q 928 4138 513 4856 
z
" transform="scale(0.015625)"/>
     </defs>
     <use xlink:href="#DejaVuSans-45"/>
     <use xlink:href="#DejaVuSans-78" x="63.183594"/>
     <use xlink:href="#DejaVuSans-70" x="122.363281"/>
     <use xlink:href="#DejaVuSans-65" x="185.839844"/>
     <use xlink:href="#DejaVuSans-72" x="247.363281"/>
     <use xlink:href="#DejaVuSans-69" x="288.476562"/>
     <use xlink:href="#DejaVuSans-6d" x="316.259766"/>
     <use xlink:href="#DejaVuSans-65" x="413.671875"/>
     <use xlink:href="#DejaVuSans-6e" x="475.195312"/>
     <use xlink:href="#DejaVuSans-74" x="538.574219"/>
     <use xlink:href="#DejaVuSans-20" x="577.783203"/>
     <use xlink:href="#DejaVuSans-4d" x="609.570312"/>
     <use xlink:href="#DejaVuSans-53" x="695.849609"/>
     <use xlink:href="#DejaVuSans-45" x="759.326172"/>
     <use xlink:href="#DejaVuSans-20" x="822.509766"/>
     <use xlink:href="#DejaVuSans-70" x="854.296875"/>
     <use xlink:href="#DejaVuSans-6c" x="917.773438"/>
     <use xlink:href="#DejaVuSans-6f" x="945.556641"/>
     <use xlink:href="#DejaVuSans-74" x="1006.738281"/>
     <use xlink:href="#DejaVuSans-20" x="1045.947266"/>
     <use xlink:href="#DejaVuSans-28" x="1077.734375"/>
     <use xlink:href="#DejaVuSans-65" x="1116.748047"/>
     <use xlink:href="#DejaVuSans-78" x="1176.521484"/>
     <use xlink:href="#DejaVuSans-70" x="1235.701172"/>
     <use xlink:href="#DejaVuSans-65" x="1299.177734"/>
     <use xlink:href="#DejaVuSans-72" x="1360.701172"/>
     <use xlink:href="#DejaVuSans-69" x="1401.814453"/>
     <use xlink:href="#DejaVuSans-6d" x="1429.597656"/>
     <use xlink:href="#DejaVuSans-65" x="1527.009766"/>
     <use xlink:href="#DejaVuSans-6e" x="1588.533203"/>
     <use xlink:href="#DejaVuSans-74" x="1651.912109"/>
     <use xlink:href="#DejaVuSans-61" x="1691.121094"/>
     <use xlink:href="#DejaVuSans-6c" x="1752.400391"/>
     <use xlink:href="#DejaVuSans-20" x="1780.183594"/>
     <use xlink:href="#DejaVuSans-76" x="1811.970703"/>
     <use xlink:href="#DejaVuSans-73" x="1871.150391"/>
     <use xlink:href="#DejaVuSans-20" x="1923.25"/>
     <use xlink:href="#DejaVuSans-65" x="1955.037109"/>
     <use xlink:href="#DejaVuSans-78" x="2014.810547"/>
     <use xlink:href="#DejaVuSans-70" x="2073.990234"/>
     <use xlink:href="#DejaVuSans-65" x="2137.466797"/>
     <use xlink:href="#DejaVuSans-63" x="2198.990234"/>
     <use xlink:href="#DejaVuSans-74" x="2253.970703"/>
     <use xlink:href="#DejaVuSans-65" x="2293.179688"/>
     <use xlink:href="#DejaVuSans-64" x="2354.703125"/>
     <use xlink:href="#DejaVuSans-29" x="2418.179688"/>
    </g>
   </g>
   <g id="legend_1">
    <g id="patch_7">
     <path d="M 254.82 109.077812 
L 381.1 109.077812 
Q 383.3 109.077812 383.3 106.877813 
L 383.3 59.54 
Q 383.3 57.34 381.1 57.34 
L 254.82 57.34 
Q 252.62 57.34 252.62 59.54 
L 252.62 106.877813 
Q 252.62 109.077812 254.82 109.077812 
z
" style="fill: #eaeaf2; opacity: 0.8; stroke: #cccccc; stroke-linejoin: miter"/>
    </g>
    <g id="line2d_16">
     <path d="M 257.02 66.248281 
L 268.02 66.248281 
L 279.02 66.248281 
" style="fill: none; stroke: #4c72b0; stroke-width: 1.5; stroke-linecap: round"/>
    </g>
    <g id="text_16">
     <!-- MSE for $H$=10 -->
     <g style="fill: #262626" transform="translate(287.82 70.098281) scale(0.11 -0.11)">
      <defs>
       <path id="DejaVuSans-66" d="M 2375 4863 
L 2375 4384 
L 1825 4384 
Q 1516 4384 1395 4259 
Q 1275 4134 1275 3809 
L 1275 3500 
L 2222 3500 
L 2222 3053 
L 1275 3053 
L 1275 0 
L 697 0 
L 697 3053 
L 147 3053 
L 147 3500 
L 697 3500 
L 697 3744 
Q 697 4328 969 4595 
Q 1241 4863 1831 4863 
L 2375 4863 
z
" transform="scale(0.015625)"/>
       <path id="DejaVuSans-Oblique-48" d="M 1081 4666 
L 1716 4666 
L 1344 2753 
L 3634 2753 
L 4006 4666 
L 4641 4666 
L 3731 0 
L 3097 0 
L 3531 2222 
L 1241 2222 
L 806 0 
L 172 0 
L 1081 4666 
z
" transform="scale(0.015625)"/>
       <path id="DejaVuSans-3d" d="M 678 2906 
L 4684 2906 
L 4684 2381 
L 678 2381 
L 678 2906 
z
M 678 1631 
L 4684 1631 
L 4684 1100 
L 678 1100 
L 678 1631 
z
" transform="scale(0.015625)"/>
      </defs>
      <use xlink:href="#DejaVuSans-4d" transform="translate(0 0.015625)"/>
      <use xlink:href="#DejaVuSans-53" transform="translate(86.279297 0.015625)"/>
      <use xlink:href="#DejaVuSans-45" transform="translate(149.755859 0.015625)"/>
      <use xlink:href="#DejaVuSans-20" transform="translate(212.939453 0.015625)"/>
      <use xlink:href="#DejaVuSans-66" transform="translate(244.726562 0.015625)"/>
      <use xlink:href="#DejaVuSans-6f" transform="translate(279.931641 0.015625)"/>
      <use xlink:href="#DejaVuSans-72" transform="translate(341.113281 0.015625)"/>
      <use xlink:href="#DejaVuSans-20" transform="translate(382.226562 0.015625)"/>
      <use xlink:href="#DejaVuSans-Oblique-48" transform="translate(414.013672 0.015625)"/>
      <use xlink:href="#DejaVuSans-3d" transform="translate(489.208984 0.015625)"/>
      <use xlink:href="#DejaVuSans-31" transform="translate(572.998047 0.015625)"/>
      <use xlink:href="#DejaVuSans-30" transform="translate(636.621094 0.015625)"/>
     </g>
    </g>
    <g id="line2d_17">
     <path d="M 257.02 82.394219 
L 268.02 82.394219 
L 279.02 82.394219 
" style="fill: none; stroke: #dd8452; stroke-width: 1.5; stroke-linecap: round"/>
    </g>
    <g id="text_17">
     <!-- MSE for $H$=100 -->
     <g style="fill: #262626" transform="translate(287.82 86.244219) scale(0.11 -0.11)">
      <use xlink:href="#DejaVuSans-4d" transform="translate(0 0.015625)"/>
      <use xlink:href="#DejaVuSans-53" transform="translate(86.279297 0.015625)"/>
      <use xlink:href="#DejaVuSans-45" transform="translate(149.755859 0.015625)"/>
      <use xlink:href="#DejaVuSans-20" transform="translate(212.939453 0.015625)"/>
      <use xlink:href="#DejaVuSans-66" transform="translate(244.726562 0.015625)"/>
      <use xlink:href="#DejaVuSans-6f" transform="translate(279.931641 0.015625)"/>
      <use xlink:href="#DejaVuSans-72" transform="translate(341.113281 0.015625)"/>
      <use xlink:href="#DejaVuSans-20" transform="translate(382.226562 0.015625)"/>
      <use xlink:href="#DejaVuSans-Oblique-48" transform="translate(414.013672 0.015625)"/>
      <use xlink:href="#DejaVuSans-3d" transform="translate(489.208984 0.015625)"/>
      <use xlink:href="#DejaVuSans-31" transform="translate(572.998047 0.015625)"/>
      <use xlink:href="#DejaVuSans-30" transform="translate(636.621094 0.015625)"/>
      <use xlink:href="#DejaVuSans-30" transform="translate(700.244141 0.015625)"/>
     </g>
    </g>
    <g id="line2d_18">
     <path d="M 257.02 98.540156 
L 268.02 98.540156 
L 279.02 98.540156 
" style="fill: none; stroke: #55a868; stroke-width: 1.5; stroke-linecap: round"/>
    </g>
    <g id="text_18">
     <!-- MSE for $H$=1000 -->
     <g style="fill: #262626" transform="translate(287.82 102.390156) scale(0.11 -0.11)">
      <use xlink:href="#DejaVuSans-4d" transform="translate(0 0.015625)"/>
      <use xlink:href="#DejaVuSans-53" transform="translate(86.279297 0.015625)"/>
      <use xlink:href="#DejaVuSans-45" transform="translate(149.755859 0.015625)"/>
      <use xlink:href="#DejaVuSans-20" transform="translate(212.939453 0.015625)"/>
      <use xlink:href="#DejaVuSans-66" transform="translate(244.726562 0.015625)"/>
      <use xlink:href="#DejaVuSans-6f" transform="translate(279.931641 0.015625)"/>
      <use xlink:href="#DejaVuSans-72" transform="translate(341.113281 0.015625)"/>
      <use xlink:href="#DejaVuSans-20" transform="translate(382.226562 0.015625)"/>
      <use xlink:href="#DejaVuSans-Oblique-48" transform="translate(414.013672 0.015625)"/>
      <use xlink:href="#DejaVuSans-3d" transform="translate(489.208984 0.015625)"/>
      <use xlink:href="#DejaVuSans-31" transform="translate(572.998047 0.015625)"/>
      <use xlink:href="#DejaVuSans-30" transform="translate(636.621094 0.015625)"/>
      <use xlink:href="#DejaVuSans-30" transform="translate(700.244141 0.015625)"/>
      <use xlink:href="#DejaVuSans-30" transform="translate(763.867188 0.015625)"/>
     </g>
    </g>
   </g>
  </g>
 </g>
 <defs>
  <clipPath id="pe256fdc28e">
   <rect x="54" y="51.84" width="334.8" height="332.64"/>
  </clipPath>
 </defs>
</svg>
